<svg xmlns="http://www.w3.org/2000/svg" width="493.2508" height="77.9268" viewBox="0 0 493.2508 77.9268"><defs><style>.a{fill:#007caa;}.b{fill:#25a0c3;}</style></defs><title>chaiinfolio-logo</title><path class="a" d="M162.4931,967.6518a7.0829,7.0829,0,0,0-6.4545,4.1721,28.3468,28.3468,0,1,0-14.8054,52.52l2.7652,0.0693a7.0864,7.0864,0,1,0,0-14.1728l-2.7652-.0694a14.1733,14.1733,0,1,1,14.1734-14.1738v21.2608a7.0866,7.0866,0,0,0,14.1733,0V974.7378A7.0866,7.0866,0,0,0,162.4931,967.6518Z" transform="translate(-1.7765 -947.1632)"/><path class="a" d="M211.2881,967.6514a7.0866,7.0866,0,0,0-7.0864,7.086v42.5209a7.0867,7.0867,0,0,0,14.1734,0V974.7374A7.0867,7.0867,0,0,0,211.2881,967.6514Z" transform="translate(-1.7765 -947.1632)"/><circle class="a" cx="209.5118" cy="7.732" r="7.0864"/><path class="a" d="M187.1405,967.6514a7.0866,7.0866,0,0,0-7.0864,7.086v42.5209a7.0867,7.0867,0,0,0,14.1734,0V974.7374A7.0867,7.0867,0,0,0,187.1405,967.6514Z" transform="translate(-1.7765 -947.1632)"/><circle class="a" cx="185.3643" cy="7.732" r="7.0864"/><path class="a" d="M81.1168,967.6482a24.53,24.53,0,0,0-10.5163,2.3554V954.8958a7.0866,7.0866,0,1,0-14.1732,0v62.3625a7.0867,7.0867,0,0,0,14.1734,0V992.3078H70.63a10.4868,10.4868,0,1,1,20.9736,0l-0.03,24.95a7.0864,7.0864,0,0,0,14.1729,0v-24.98A24.6294,24.6294,0,0,0,81.1168,967.6482Z" transform="translate(-1.7765 -947.1632)"/><path class="a" d="M253.5388,967.6482a24.5186,24.5186,0,0,0-11.8119,3.0137,7.0829,7.0829,0,0,0-12.8777,4.0759v42.5205a7.0867,7.0867,0,0,0,14.1734,0V992.3078h0.029a10.4868,10.4868,0,1,1,20.9736,0l-0.03,24.95a7.0864,7.0864,0,0,0,14.1729,0v-24.98A24.6294,24.6294,0,0,0,253.5388,967.6482Z" transform="translate(-1.7765 -947.1632)"/><path class="a" d="M23.0527,1024.1077a28.6605,28.6605,0,0,0,21.7934-2.873l2.4618-1.34a7.1792,7.1792,0,0,0,2.628-9.8069l0,0a7.1793,7.1793,0,0,0-9.8071-2.628l0,0-2.4618,1.34a14.3489,14.3489,0,1,1-3.4716-26.2718l2.7236,0.6585,0.0006,0a7.18,7.18,0,0,0,8.7931-5.0776h0a7.179,7.179,0,0,0-5.0763-8.7924l-2.7252-.6569A28.7022,28.7022,0,0,0,23.0527,1024.1077Z" transform="translate(-1.7765 -947.1632)"/><path class="b" d="M421.2738,968.3971a7.0866,7.0866,0,0,0-7.0864,7.086v42.5209a7.0867,7.0867,0,0,0,14.1734,0V975.4831A7.0867,7.0867,0,0,0,421.2738,968.3971Z" transform="translate(-1.7765 -947.1632)"/><circle class="b" cx="419.4976" cy="8.4777" r="7.0864"/><path class="b" d="M351.3032,968.3965A28.3467,28.3467,0,1,0,379.65,996.7432,28.3461,28.3461,0,0,0,351.3032,968.3965Zm0,42.52a14.1729,14.1729,0,1,1,14.1739-14.1728A14.1726,14.1726,0,0,1,351.3032,1010.916Z" transform="translate(-1.7765 -947.1632)"/><path class="b" d="M466.6806,968.3965a28.3467,28.3467,0,1,0,28.3467,28.3467A28.3461,28.3461,0,0,0,466.6806,968.3965Zm0,42.52a14.1729,14.1729,0,1,1,14.1739-14.1728A14.1726,14.1726,0,0,1,466.6806,1010.916Z" transform="translate(-1.7765 -947.1632)"/><path class="b" d="M397.1264,1025.09h0a7.0866,7.0866,0,0,1-7.0866-7.0866V955.6414a7.0866,7.0866,0,0,1,7.0866-7.0866h0a7.0866,7.0866,0,0,1,7.0866,7.0866v62.3619A7.0866,7.0866,0,0,1,397.1264,1025.09Z" transform="translate(-1.7765 -947.1632)"/><path class="b" d="M288.2016,1017.9348v0.0692a7.0865,7.0865,0,0,0,14.1729,0v-0.0594l0-.01v-28.347h6.0814a7.2835,7.2835,0,0,0,7.38-6.8687,7.0867,7.0867,0,0,0-7.0833-7.3046H302.375v0l0-.01v-7.0676a7.0011,7.0011,0,0,1,7.001-7.001H312.4a7.0864,7.0864,0,1,0,0-14.1728h-3.1953a20.9988,20.9988,0,0,0-21.003,20.998v49.7736Z" transform="translate(-1.7765 -947.1632)"/></svg>