<?xml version="1.0" standalone="no"?>
<!DOCTYPE svg PUBLIC "-//W3C//DTD SVG 1.1//EN" "http://www.w3.org/Graphics/SVG/1.1/DTD/svg11.dtd" >
<svg xmlns="http://www.w3.org/2000/svg">
<metadata>Generated by IcoMoon</metadata>
<defs>
<font id="aenicon" horiz-adv-x="1024">
<font-face units-per-em="1024" ascent="960" descent="-64" />
<missing-glyph horiz-adv-x="1024" />
<glyph unicode="&#x20;" horiz-adv-x="512" d="" />
<glyph unicode="&#xe900;" glyph-name="search" d="M679.206 280.794c-72.024-72.028-171.526-116.579-281.434-116.579-219.806 0-397.995 178.188-397.995 397.995s178.188 397.995 397.995 397.995c109.908 0 209.41-44.551 281.434-116.579v0c71.911-72.071 116.377-171.55 116.377-281.416s-44.467-209.345-116.385-281.423l0.007 0.007zM182.593 777.407c-55.075-55.075-89.139-131.16-89.139-215.201 0-168.082 136.257-304.34 304.34-304.34s304.34 136.257 304.34 304.34c0 84.041-34.065 160.126-89.139 215.201v0c-55.112 54.992-131.185 88.998-215.2 88.998s-160.088-34.005-215.206-89.003l0.005 0.005zM1010.278-50.285c-8.472-8.477-20.178-13.72-33.109-13.72s-24.637 5.243-33.109 13.72l-331.094 331.094c-8.388 8.459-13.571 20.107-13.571 32.966 0 25.86 20.964 46.824 46.824 46.824 12.859 0 24.507-5.183 32.969-13.575l331.090-331.090c8.477-8.472 13.72-20.178 13.72-33.109s-5.243-24.637-13.72-33.109v0z" />
<glyph unicode="&#xe901;" glyph-name="tri-right" horiz-adv-x="512" d="M0 960l512-512-512-512v1024z" />
<glyph unicode="&#xe902;" glyph-name="step-arrow" horiz-adv-x="640" d="M0-64l512 512-512 512h128.011l512-512-512-512h-128.011z" />
<glyph unicode="&#xe903;" glyph-name="calendar" horiz-adv-x="1029" d="M110.226 901.856c-60.876 0-110.226-49.35-110.226-110.226v0-745.411c0-60.876 49.35-110.226 110.226-110.226v0h808.324c60.876 0 110.226 49.35 110.226 110.226v0 745.411c0 60.876-49.35 110.226-110.226 110.226v0h-808.324zM900.179 846.743c40.584 0 73.484-32.9 73.484-73.484v0-708.669c0-40.584-32.9-73.484-73.484-73.484v0h-771.582c-40.584 0-73.484 32.9-73.484 73.484v0 708.669c0 40.584 32.9 73.484 73.484 73.484v0h771.582zM230.861 960c20.292 0 36.742-16.45 36.742-36.742v-97.914c0-20.292-16.45-36.742-36.742-36.742s-36.742 16.45-36.742 36.742v97.914c0 20.292 16.45 36.742 36.742 36.742zM797.915 960c20.292 0 36.742-16.45 36.742-36.742v-97.914c0-20.292-16.45-36.742-36.742-36.742s-36.742 16.45-36.742 36.742v97.914c0 20.292 16.45 36.742 36.742 36.742zM343.902 692.206h141.291v-141.291h-141.291v141.291zM543.58 692.206h141.291v-141.291h-141.291v141.291zM743.262 692.206h141.291v-141.291h-141.291v141.291zM343.902 465.096h141.291v-141.291h-141.291v141.291zM543.58 465.096h141.291v-141.291h-141.291v141.291zM743.262 465.096h141.291v-141.291h-141.291v141.291zM144.223 465.096h141.291v-141.291h-141.291v141.291zM343.902 237.983h141.291v-141.291h-141.291v141.291zM543.58 237.983h141.291v-141.291h-141.291v141.291zM144.223 237.983h141.291v-141.291h-141.291v141.291z" />
<glyph unicode="&#xe904;" glyph-name="contacts" d="M868.242 593.266c26.691 0.007 48.327 21.645 48.329 48.336v0 119.489c-0.002 26.687-21.637 48.321-48.325 48.321-0.001 0-0.003 0-0.004 0h-29.605v42.512c-0.002 59.685-48.386 108.069-108.071 108.071h-504.34c-59.685-0.002-108.069-48.386-108.071-108.071v0-792.533c0.002-59.685 48.386-108.069 108.071-108.071h504.34c59.685 0.002 108.069 48.386 108.071 108.071v0 42.496h29.605c26.691 0 48.329 21.638 48.329 48.329 0 0.003 0 0.006 0 0.008v0 119.489c-0.002 26.687-21.637 48.321-48.325 48.321-0.001 0-0.003 0-0.004 0h-29.605v29.538h29.605c26.691 0 48.329 21.638 48.329 48.329 0 0.003 0 0.006 0 0.008v0 119.469c0 0.002 0 0.005 0 0.008 0 26.691-21.638 48.329-48.329 48.329h-29.605v29.538h29.605zM784.601 77.406c0-39.792-32.258-72.050-72.050-72.050v0h-468.315c-39.792 0-72.050 32.258-72.050 72.050v0 756.519c0 39.792 32.258 72.050 72.050 72.050v0h468.315c39.792 0 72.050-32.258 72.050-72.050v0-756.508zM490.957 681.602c-2.276 0.077-4.952 0.121-7.638 0.121-63.782 0-121.776-24.786-164.873-65.252l0.128 0.119c-42.419-41.487-68.721-99.302-68.721-163.26 0-63.106 25.605-120.231 66.993-161.554l0.003-0.003c45.865-38.903 105.73-62.558 171.121-62.558 5.729 0 11.415 0.182 17.054 0.539l-0.77-0.039c30.619 0.073 60.482 3.118 89.374 8.86l-2.937-0.487v52.452c-25.749-7.051-55.314-11.102-85.826-11.102-1.258 0-2.514 0.007-3.769 0.021l0.191-0.002c-4.269-0.346-9.241-0.543-14.26-0.543-49.568 0-94.645 19.227-128.18 50.63l0.104-0.096c-29.297 30.658-47.328 72.297-47.328 118.148 0 1.405 0.017 2.806 0.051 4.203l-0.004-0.207c-0.038 1.368-0.060 2.979-0.060 4.595 0 48.227 19.392 91.926 50.805 123.722l-0.017-0.018c31.218 32.106 74.824 52.025 123.082 52.025 1.662 0 3.318-0.024 4.968-0.071l-0.243 0.005c2.171 0.113 4.713 0.178 7.27 0.178 41.385 0 78.817-16.929 105.747-44.24l0.017-0.017c26.173-29.575 42.154-68.697 42.154-111.55 0-3.468-0.105-6.911-0.311-10.326l0.023 0.47c0.126-2.352 0.197-5.105 0.197-7.875 0-20.839-4.051-40.732-11.409-58.934l0.377 1.056c-3.557-11.877-13.612-20.695-25.94-22.391l-0.164-0.019c-0.185-0.008-0.403-0.013-0.621-0.013-5.608 0-10.504 3.045-13.125 7.573l-0.039 0.073c-3.063 10.185-4.827 21.889-4.827 34.005 0 3.46 0.144 6.886 0.426 10.274l-0.030-0.443v136.44h-63.779l-2.217-26.348c-6.661 11.122-15.918 20.064-26.965 26.162l-0.368 0.186c-9.614 4.671-20.913 7.401-32.85 7.401-0.485 0-0.969-0.005-1.452-0.013l0.073 0.001c-0.541 0.012-1.179 0.019-1.818 0.019-28.552 0-53.918-13.645-69.931-34.77l-0.159-0.219c-17.241-22.33-27.634-50.714-27.634-81.525 0-1.467 0.024-2.929 0.070-4.384l-0.005 0.212c-0.091-1.76-0.144-3.821-0.144-5.894 0-30.983 11.638-59.247 30.781-80.66l-0.103 0.117c17.823-19.839 43.562-32.26 72.202-32.26 0.070 0 0.139 0 0.209 0h-0.011c0.643-0.020 1.4-0.031 2.159-0.031 29.165 0 54.441 16.648 66.844 40.96l0.197 0.425c4.659-14.213 13.964-25.829 26.086-33.326l0.262-0.151c11.255-6.213 24.673-9.869 38.944-9.869 0.68 0 1.357 0.008 2.033 0.025l-0.1-0.002c0.896-0.033 1.947-0.052 3.003-0.052 31.851 0 59.667 17.273 74.592 42.963l0.221 0.412c16.859 26.972 26.857 59.735 26.857 94.833 0 0.86-0.006 1.719-0.018 2.577l0.001-0.13c0.079 2.092 0.124 4.549 0.124 7.016 0 56.297-23.349 107.141-60.89 143.377l-0.059 0.056c-38.395 36.244-90.313 58.522-147.435 58.522-2.713 0-5.413-0.050-8.102-0.15l0.388 0.011zM517.305 400.868c-4.452-7.076-10.422-12.812-17.481-16.863l-0.242-0.128c-6.383-3.565-14.004-5.664-22.116-5.664-0.103 0-0.207 0-0.31 0.001h0.016c-0.405-0.014-0.881-0.021-1.359-0.021-16.157 0-30.246 8.851-37.685 21.968l-0.112 0.215c-8.366 14.133-13.31 31.149-13.31 49.319 0 0.582 0.005 1.163 0.015 1.743l-0.001-0.087c-0.067 1.314-0.105 2.854-0.105 4.402 0 19.429 6.026 37.45 16.311 52.297l-0.2-0.305c8.881 13.139 23.724 21.663 40.557 21.663 0.113 0 0.225 0 0.337-0.001h-0.017c0.51 0.017 1.109 0.027 1.71 0.027 6.819 0 13.341-1.274 19.34-3.598l-0.366 0.125c5.575-2.196 10.382-5.103 14.604-8.679l-0.075 0.062c5.868-8.746 9.967-19.166 11.531-30.396l0.044-0.387c1.625-8.366 2.688-18.125 2.949-28.084l0.005-0.237c0.062-1.358 0.098-2.95 0.098-4.55 0-19.447-5.25-37.667-14.409-53.322l0.27 0.5z" />
<glyph unicode="&#xe905;" glyph-name="copy" d="M731.429-73.752c-4.876 0-4.876 0 0 0h-307.2v58.514h302.324c0 0 0 0 0 0 34.133 0 63.39 14.629 87.771 34.133 24.381 24.381 34.133 53.638 34.133 87.771v546.133h58.514v-546.133c0-48.762-19.505-92.648-53.638-126.781-29.257-39.010-78.019-53.638-121.905-53.638zM609.524 43.276c0 0 0 0 0 0h-307.2c-48.762 0-92.648 19.505-126.781 53.638-34.133 39.010-53.638 82.895-53.638 131.657v551.010c0 48.762 19.505 92.648 53.638 126.781 39.010 34.133 82.895 53.638 131.657 53.638h302.324c48.762 0 92.648-19.505 126.781-53.638s53.638-82.895 53.638-131.657v-546.133c0-102.4-82.895-185.295-180.419-185.295zM609.524 106.667c0 0 0 0 0 0 68.267 0 121.905 53.638 121.905 121.905v546.133c0 34.133-14.629 63.39-34.133 87.771-24.381 24.381-53.638 34.133-87.771 34.133h-302.324c0 0 0 0 0 0-34.133 4.876-63.39-9.752-87.771-34.133-19.505-19.505-34.133-53.638-34.133-82.895v-546.133c0-34.133 14.629-63.39 34.133-87.771 24.381-24.381 53.638-34.133 87.771-34.133l302.324-4.876z" />
<glyph unicode="&#xe906;" glyph-name="tri-down" d="M1009.095 704l-504.548-504.548-504.548 504.548h1009.095z" />
<glyph unicode="&#xe907;" glyph-name="wallet" d="M101.301 54.527c-55.915 0.084-101.22 45.39-101.301 101.297v566.47c0.070 65.788 53.373 119.102 119.149 119.191h715.556c27.578-0.169 51.111-17.309 60.694-41.496l0.155-0.444h-791.223c-13.080 0-23.682-10.604-23.682-23.682s10.604-23.682 23.682-23.682h782.709c55.916-0.082 101.224-45.389 101.306-101.297v-0.008l0.114-115.76 2.941-5.087c19.674-12.080 32.598-33.478 32.598-57.894 0-0.061 0-0.12 0-0.182v0.009-137.243c-0.048-24.58-13.101-46.1-32.642-58.053l-0.298-0.169-2.799-120.676c-0.067-55.913-45.367-101.221-101.269-101.306h-0.008zM41.97 710.181v-536.525c0.057-42.658 34.64-77.222 77.301-77.245h749.947c42.663 0.026 77.245 34.587 77.304 77.241v92.629h-238.002c-75.687 0-137.044 61.356-137.044 137.044s61.356 137.044 137.044 137.044v0h238.002v92.619c-0.054 42.661-34.638 77.226-77.301 77.251h-785.713zM708.491 498.485c-0.2 0.002-0.437 0.002-0.673 0.002-52.542 0-95.137-42.594-95.137-95.137s42.594-95.137 95.137-95.137c0.237 0 0.473 0.001 0.709 0.002h247.175c14.639 0.011 26.502 11.876 26.51 26.514v137.303c-0.076 14.59-11.891 26.394-26.476 26.453h-0.005zM726.376 355.587c-26.365 0-47.738 21.374-47.738 47.738s21.374 47.738 47.738 47.738c26.355 0 47.721-21.356 47.738-47.707v-0.002c-0.014-26.365-21.375-47.737-47.736-47.766h-0.003z" />
<glyph unicode="&#xe908;" glyph-name="remark" d="M512.003 960c-282.768 0-511.997-229.229-511.997-511.997s229.229-511.997 511.997-511.997c282.768 0 511.997 229.229 511.997 511.997v0c-0.009 282.765-229.233 511.988-511.997 511.997h-0.001zM548.501 123.62c-12.607-10.464-28.957-16.814-46.789-16.814s-34.182 6.35-46.91 16.912l0.121-0.098c-9.316 11.171-14.972 25.678-14.972 41.505 0 16.834 6.398 32.174 16.895 43.721l-0.048-0.053c11.19 10.488 26.283 16.929 42.88 16.929 1.045 0 2.084-0.026 3.117-0.076l-0.145 0.006c0.983 0.056 2.133 0.088 3.291 0.088 16.499 0 31.49-6.453 42.589-16.973l-0.028 0.026c10.435-11.105 16.846-26.097 16.846-42.587s-6.411-31.481-16.876-42.619l0.031 0.033zM639.277 461.446l-56.153-55.2c-19.412-25.1-31.115-57.019-31.115-91.672 0-2.97 0.086-5.92 0.256-8.847l-0.019 0.405-103.88 1.875c-0.060 2.069-0.094 4.504-0.094 6.946 0 31.070 5.524 60.85 15.644 88.411l-0.572-1.78c15.171 31.154 35.294 57.563 59.648 79.338l0.245 0.215c20.421 18.703 38.836 38.888 55.333 60.611l0.815 1.119c11.628 16.759 18.614 37.505 18.718 59.877v0.026c0.106 1.665 0.166 3.611 0.166 5.57 0 22.877-8.207 43.838-21.836 60.099l0.119-0.146c-14.584 14.039-34.445 22.686-56.326 22.686-2.243 0-4.466-0.091-6.663-0.269l0.289 0.019c-0.823 0.026-1.791 0.041-2.763 0.041-23.296 0-44.606-8.506-60.994-22.581l0.125 0.105c-15.041-14.2-24.405-34.275-24.405-56.537 0-1.184 0.026-2.362 0.079-3.533l-0.006 0.166h-110.426c-0.231 3.259-0.363 7.061-0.363 10.894 0 48.879 21.428 92.753 55.402 122.741l0.177 0.153c35.851 29.302 82.136 47.057 132.567 47.057 3.731 0 7.44-0.097 11.123-0.289l-0.516 0.021c3.638 0.23 7.889 0.361 12.171 0.361 49.942 0 95.724-17.808 131.344-47.421l-0.335 0.271c31.89-30.536 51.71-73.455 51.71-121.003 0-3.18-0.089-6.34-0.264-9.476l0.019 0.436c-1.946-59.757-28.167-113.031-69.068-150.56l-0.157-0.142z" />
<glyph unicode="&#xe909;" glyph-name="menu-dots" horiz-adv-x="1072" d="M616.836 879.159c0-44.647-36.194-80.841-80.841-80.841s-80.841 36.194-80.841 80.841c0 44.647 36.194 80.841 80.841 80.841s80.841-36.194 80.841-80.841zM616.836 16.841c0-44.647-36.194-80.841-80.841-80.841s-80.841 36.194-80.841 80.841c0 44.647 36.194 80.841 80.841 80.841s80.841-36.194 80.841-80.841zM616.836 447.962c0-44.647-36.194-80.841-80.841-80.841s-80.841 36.194-80.841 80.841c0 44.647 36.194 80.841 80.841 80.841s80.841-36.194 80.841-80.841z" />
<glyph unicode="&#xe90a;" glyph-name="checkbox-off" d="M511.985 886.857c242.374 0 438.857-196.483 438.857-438.857s-196.483-438.857-438.857-438.857c-242.374 0-438.857 196.483-438.857 438.857v0c0.279 242.262 196.596 438.579 438.831 438.857h0.026zM511.985 960c-282.77 0-512-229.23-512-512s229.23-512 512-512c282.77 0 512 229.23 512 512v0c0 282.77-229.23 512-512 512v0 0z" />
<glyph unicode="&#xe90b;" glyph-name="tri-left" horiz-adv-x="512" d="M512-64l-512 512 512 512v-1024z" />
<glyph unicode="&#xe90c;" glyph-name="remark-line" d="M512.022-64c-282.77 0-512 229.23-512 512s229.23 512 512 512c282.77 0 512-229.23 512-512v0c-0.329-282.638-229.363-511.671-511.969-512h-0.031zM512.022 923.198c-0.007 0-0.014 0-0.022 0-262.445 0-475.198-212.754-475.198-475.198s212.754-475.198 475.198-475.198c262.445 0 475.198 212.754 475.198 475.198v0c-0.304 262.315-212.863 474.882-475.146 475.198h-0.030zM547.208 135.279c-12.154-10.089-27.917-16.212-45.109-16.212s-32.955 6.122-45.226 16.306l0.117-0.094c-8.982 10.769-14.435 24.755-14.435 40.014 0 16.229 6.168 31.018 16.288 42.149l-0.046-0.051c10.788 10.112 25.339 16.323 41.341 16.323 1.008 0 2.009-0.025 3.005-0.073l-0.14 0.005c0.948 0.054 2.056 0.084 3.172 0.084 15.907 0 30.361-6.222 41.061-16.364l-0.027 0.025c10.060-10.706 16.24-25.159 16.24-41.056s-6.18-30.35-16.27-41.087l0.029 0.032zM634.72 460.951l-54.134-53.212c-18.713-24.198-29.996-54.969-29.996-88.375 0-2.865 0.083-5.71 0.247-8.534l-0.018 0.39-100.147 1.808c-0.058 1.997-0.091 4.347-0.091 6.705 0 29.952 5.325 58.661 15.081 85.23l-0.551-1.716c14.626 30.034 34.026 55.493 57.504 76.486l0.236 0.207c19.686 18.030 37.44 37.491 53.344 58.433l0.786 1.079c11.21 16.157 17.945 36.159 18.045 57.729v0.025c0.103 1.613 0.162 3.499 0.162 5.397 0 22.044-7.904 42.243-21.032 57.915l0.115-0.141c-14.062 13.534-33.21 21.869-54.305 21.869-2.16 0-4.3-0.087-6.416-0.259l0.278 0.018c-0.795 0.025-1.729 0.039-2.667 0.039-22.459 0-43.002-8.2-58.8-21.769l0.12 0.101c-14.501-13.689-23.529-33.043-23.529-54.505 0-1.143 0.026-2.279 0.076-3.409l-0.006 0.161h-106.456c-0.223 3.143-0.35 6.809-0.35 10.506 0 47.122 20.657 89.419 53.41 118.33l0.171 0.148c34.563 28.249 79.184 45.367 127.804 45.367 3.593 0 7.163-0.093 10.71-0.278l-0.497 0.021c3.502 0.221 7.595 0.347 11.717 0.347 48.147 0 92.285-17.168 126.624-45.717l-0.323 0.261c30.746-29.439 49.855-70.817 49.855-116.657 0-3.064-0.085-6.109-0.254-9.131l0.019 0.42c-1.873-57.609-27.149-108.969-66.578-145.151l-0.151-0.137z" />
<glyph unicode="&#xe90d;" glyph-name="lang" horiz-adv-x="1023" d="M878.156 805.459l-19.575-3.32-2.194 6.182c-5.145-1.377-9.642-3.246-13.817-5.618l0.287 0.15c-3.61-3.458-6.783-7.324-9.458-11.537l-0.149-0.251c-2.076 3.124-4.342 6.254-6.307 9.575-2.94 4.964-5.239 5.534-11.362 2.083l4.329-14.624c-3.671-3.475-7.965-6.34-12.689-8.403l-0.285-0.111c-5.528 0.030-10.788 1.139-15.593 3.126l0.275-0.101 3.274-8.343-10.072 4.1-3.458 8.952-7.361 4.584 0.655 0.655c8.134-1.31 16.241-2.921 24.421-3.726 0.255-0.026 0.552-0.040 0.852-0.040 2.589 0 4.923 1.088 6.571 2.832l0.004 0.004c0.081 0.471 0.127 1.014 0.127 1.568 0 2.577-1 4.92-2.634 6.663l0.005-0.005c-3.672 3.618-8.129 6.451-13.090 8.22l-0.25 0.078c-11.375 3.071-23.098 4.853-35.816 7.381l-12.797 8.952-0.583-1.356c-3.523 0-7.053 0.105-10.576-0.039-2.612-0.13-5.054-0.432-7.438-0.898l0.326 0.053c-4.237-0.766-8.409-2.096-12.666-2.436-0.020 0-0.043 0-0.066 0-5.035 0-9.466-2.582-12.042-6.495l-0.034-0.054c-1.6-2.011-3.714-3.549-6.145-4.423l-0.096-0.030c-6.419-2.316-11.358-7.354-13.491-13.683l-0.045-0.155c-1.176-9.096-8.873-16.051-18.194-16.051-0.842 0-1.672 0.057-2.484 0.167l0.095-0.010c-1.31-0.072-2.62-0.282-4.525-0.491l-11.349-17.924 4.807-5.39 1.965-9.948c3.445 0.655 5.495 1.126 7.571 1.441 1.646 0.345 3.536 0.543 5.474 0.543 8.29 0 15.735-3.618 20.841-9.362l0.025-0.028c5.036-5.449 10.642-10.373 15.678-15.233 4.153 0.932 7.209 4.587 7.209 8.957 0 0.319-0.016 0.634-0.048 0.945l0.003-0.039c-0.139 0.773-0.218 1.664-0.218 2.573 0 3.594 1.239 6.898 3.313 9.509l-0.024-0.031c0.58 1.479 0.916 3.191 0.916 4.982 0 0.953-0.095 1.884-0.277 2.783l0.015-0.090c-0.084 1.565-0.132 3.397-0.132 5.24 0 4.091 0.236 8.126 0.695 12.094l-0.045-0.483c0.809 3.753 2.985 6.896 5.969 8.947l0.049 0.032c5.443 2.846 12.14 5.8 19.032 8.351l1.269 0.411 1.218-1.709-14.938-16.019 3.608-13.307c3.759-3.878 9.017-6.285 14.837-6.285 0.89 0 1.767 0.056 2.627 0.165l-0.102-0.011c6.032 0.609 12.011 1.69 18.016 2.567l0.55-2.161c-3.019-0.95-5.992-2.109-9.064-2.796-7.481-0.305-13.519-6.098-14.207-13.445l-0.004-0.059c-1.958 0.778-4.364 1.527-6.835 2.108l-0.368 0.073c-0.53 0.033-1.149 0.051-1.773 0.051-1.509 0-2.993-0.109-4.443-0.32l0.165 0.020v-14.663l-5.802-5.377c-2.499 0.9-5.383 1.42-8.389 1.42-3.541 0-6.913-0.722-9.977-2.026l0.167 0.063c-0.942-0.038-2.047-0.060-3.158-0.060-5.888 0-11.633 0.616-17.172 1.786l0.539-0.095c-4.329 1.571-7.366 5.648-7.366 10.435 0 0.398 0.021 0.791 0.062 1.179l-0.004-0.048c0 3.17 0 6.339 0 9.542-12.888-1.415-16.176-7.983-9.168-18.213-11.941-9.929-25.864-18-41.020-23.505l-0.965-0.307 1.205 13.242-21.926 23.615 6.392 7.859-11.703 3.392 1.559 5.003c-8.324 1.827-12.58 0.491-14.761-4.394-1.644-3.68-0.537-6.352 4.584-10.832l-0.203-3.929-0.242-3.667c1.683-0.085 3.242-0.079 4.768-0.262 1.31-0.164 2.62-0.55 4.165-0.897 5.75-10.924-7.8-11.565-9.823-18.854l5.239-3.805-6.726-6.136 0.445-1.722c6.657-0.519 14.415-0.815 22.243-0.815 5.364 0 10.695 0.139 15.991 0.413l-0.741-0.031-4.296-6.549-26.995-3.432c-1.17-1.306-1.885-3.040-1.885-4.941 0-2.931 1.699-5.464 4.166-6.67l0.044-0.019c3.772-2.986 7.806-5.645 11.559-8.658 2.331-1.266 3.887-3.696 3.887-6.489 0-1.235-0.304-2.398-0.841-3.42l0.019 0.040c-1.53-3.558-5.004-6.004-9.051-6.004-0.518 0-1.026 0.040-1.522 0.117l0.055-0.007c-6.634 1.244-13.189 2.999-19.869 3.897-2.251 0.763-4.845 1.203-7.541 1.203-4.668 0-9.028-1.32-12.727-3.608l0.104 0.060-2.331-39.948c2.389-1.407 5.149-2.627 8.054-3.516l0.276-0.073c10.649-1.546 21.343-2.796 32.044-3.982 0.855-0.223 1.836-0.351 2.847-0.351 4.385 0 8.208 2.406 10.22 5.97l0.030 0.059c2.349 4.211 4.993 7.849 8.014 11.135l-0.038-0.041c3.788 4.030 7.853 7.699 12.202 11.016l0.241 0.176c3.375 1.655 5.989 4.43 7.396 7.831l0.037 0.1c1.41 2.126 3.549 3.671 6.054 4.288l0.070 0.015c4.545 1.657 9.371 2.521 13.975 4.054 2.046 0.91 4.433 1.44 6.944 1.44 4.948 0 9.415-2.057 12.593-5.363l0.006-0.006c9.203-8.83 19.547-16.587 30.758-23.001l0.768-0.405c2.39-1.637 4.519-3.667 7.453-6.071-6.098-3.37-13.18-6.319-20.599-8.473l-0.744-0.185 14.322-7.112 13.451 20.812h6.916l0.832 1.362c-5.041 4.528-10.649 8.622-16.649 12.118l-0.483 0.26c-4.834 2.443-8.893 5.749-12.12 9.753l-0.055 0.070c-2.462 2.744-5.331 5.121-8.212 7.859 1.349 2.356 3.848 3.917 6.711 3.917 2.064 0 3.938-0.811 5.322-2.132l-0.003 0.003c8.435-5.684 16.444-12.037 24.414-18.383 1.3-1.549 2.33-3.376 2.986-5.372l0.033-0.116c3.759-7.361 7.61-14.676 11.225-22.103 2.57-4.798 7.329-8.131 12.906-8.672l0.067-0.005 6.686 8.907-9.371 11.238c2.584 2.363 6.039 3.81 9.832 3.81 2.087 0 4.072-0.438 5.867-1.228l-0.094 0.037c2.045-5.223 4.244-9.649 6.776-13.852l-0.227 0.407c3.389-4.332 6.989-8.177 10.898-11.681l0.084-0.074c1.986-2.264 4.885-3.686 8.117-3.686 2.129 0 4.113 0.617 5.784 1.682l-0.044-0.026c0.338 0.404 0.724 0.752 1.153 1.042l0.020 0.012c8.455-1.198 17.027-2.030 25.298-3.975 4.043-1.845 7.519-4.153 10.571-6.92l-0.034 0.031c-4.185-4.184-7.942-8.797-11.2-13.765l-0.202-0.328c-1.732-4.487-3.050-9.714-3.72-15.143l-0.033-0.326c-7.737 6.191-17.666 9.935-28.47 9.935-0.287 0-0.574-0.003-0.86-0.008l0.043 0.001c-8.557 1.793-18.965 3.252-29.554 4.060l-0.859 0.053c-6.21-0.069-12.068-1.511-17.305-4.036l0.245 0.106c-3.538-2.095-7.798-3.333-12.347-3.333-7.378 0-13.996 3.257-18.493 8.412l-0.025 0.029c-2.595 2.035-5.804 3.402-9.308 3.791l-0.083 0.008c-7.672 0.749-14.514 3.813-19.943 8.475l0.048-0.040 0.838 18.52c-3.319 2.46-7.494 3.937-12.015 3.937-1.092 0-2.164-0.086-3.209-0.252l0.115 0.015c-8.579-0.884-17.302-0.269-25.934-0.753-10.985-0.8-21.196-2.925-30.86-6.228l0.86 0.255c-4.252-1.929-9.221-3.053-14.452-3.053-7 0-13.53 2.012-19.042 5.49l0.147-0.087c-0.588 0.158-1.263 0.248-1.959 0.248-1.868 0-3.583-0.652-4.932-1.74l0.015 0.012c-5.141-4.244-9.751-9.123-14.63-13.687-6.544-4.546-11.006-11.696-11.882-19.918l-0.011-0.122c-0.109-4.874-3.752-8.865-8.462-9.516l-0.051-0.006c-14.867-3.373-27.061-12.794-34.077-25.478l-0.135-0.266c-9.613-14.34-15.407-31.948-15.58-50.899v-0.044c-0.367-7.905-1.358-15.345-2.932-22.567l0.162 0.884c-0.467-1.381-0.737-2.972-0.737-4.626 0-6.828 4.595-12.583 10.861-14.34l0.105-0.025c7.124-3.323 11.985-10.403 12.037-18.625v-0.007c0.426 0.050 0.92 0.079 1.421 0.079 5.629 0 10.41-3.635 12.122-8.686l0.027-0.090-3.713-11.231c1.843 0.255 3.972 0.401 6.135 0.401 10.749 0 20.659-3.597 28.59-9.653l-0.114 0.084c1.737-0.77 3.763-1.218 5.893-1.218 2.054 0 4.010 0.416 5.789 1.169l-0.098-0.037c5.562 2.685 12.095 4.254 18.994 4.254 2.814 0 5.568-0.261 8.237-0.76l-0.276 0.043c1.538-0.248 3.31-0.389 5.116-0.389 6.668 0 12.886 1.928 18.126 5.258l-0.138-0.082c5.99 3.609 13.221 5.744 20.952 5.744 7.328 0 14.208-1.919 20.165-5.281l-0.205 0.107c2.888-1.509 6.252-2.577 9.812-3.011l0.142-0.014c7.928-0.482 14.175-7.030 14.175-15.036 0-2.449-0.584-4.761-1.621-6.805l0.039 0.086c-2.441-3.974-3.887-8.786-3.887-13.937 0-6.043 1.991-11.621 5.352-16.115l-0.050 0.070c5.917-8.799 11.646-18.944 16.588-29.531l0.59-1.406c3.012-5.015 4.794-11.067 4.794-17.535 0-6.642-1.879-12.846-5.134-18.108l0.085 0.148c-1.935-4.567-3.059-9.879-3.059-15.453 0-0.093 0-0.186 0.001-0.279v0.014c-0.995-5.66-1.564-12.177-1.564-18.826 0-11.498 1.701-22.598 4.865-33.063l-0.21 0.808c5.894-18.645 8.559-38.337 12.626-57.571 0.393-1.853 0.714-3.72 1.14-5.56-0.020-0.32-0.031-0.693-0.031-1.070 0-10.073 8.166-18.239 18.239-18.239 0.398 0 0.793 0.013 1.185 0.038l-0.053-0.003 5.115-10.531c6.097 2.554 1.375 6.719 2.371 10.596 26.226 5.192 47.373 23.034 57.096 46.766l0.187 0.517c1.114-0.579 2.432-0.919 3.829-0.919 3.653 0 6.765 2.321 7.94 5.568l0.019 0.059-10.242 1.375 7.034 10.354c0.93-1.643 1.931-3.062 3.056-4.371l-0.030 0.036c1.222-1.838 3.284-3.032 5.624-3.032 2.268 0 4.275 1.122 5.495 2.841l0.014 0.021c1.375 1.257 2.475 2.849 3.929 3.995 1.21 0.813 2.598 1.571 4.055 2.201l0.17 0.065c-3.83 5.468-6.322 12.131-6.868 19.338l-0.008 0.132c11.736-15.062 11.919-16.634 28.488-2.377l-18.468 24.788c3.318 9.452 8.687 17.471 15.604 23.833l0.041 0.038c7.304 5.464 13.084 12.576 16.844 20.805l0.137 0.335c1.22 4.146 1.922 8.91 1.922 13.837 0 3.523-0.359 6.962-1.042 10.283l0.056-0.328c-1.068 7.201-1.678 15.513-1.678 23.968 0 5.442 0.253 10.825 0.747 16.137l-0.051-0.681c1.097 7.811 6.706 14.067 14.068 16.098l0.136 0.032c7.94 3.167 14.4 8.646 18.707 15.599l0.095 0.165c11.497 15.82 21.074 34.050 27.825 53.598l0.44 1.465c0.521 1.375 0.907 2.974 1.086 4.635l0.008 0.087c0.19 1.834 0.046 3.707 0.046 6.307-9.722-4.049-21.016-6.401-32.859-6.401-2.537 0-5.048 0.108-7.53 0.319l0.324-0.022c-3.722 14.367-12.253 26.339-23.737 34.385l-0.193 0.128c-7.833 6.994-13.162 16.648-14.561 27.532l-0.023 0.222c-2.543 9.752-6.278 18.309-11.127 26.101l0.23-0.396c-2.069 4.335-4.892 8.317-7.446 12.574l3.006 5.043c6.097-7.911 12.443-15.508 18.016-23.635 3.053-4.474 5.641-9.618 7.509-15.096l0.134-0.451c4.639-17.159 13.064-31.964 24.358-44.055l-0.055 0.060c4.198-5.315 10.643-8.694 17.876-8.694 6.912 0 13.104 3.086 17.272 7.956l0.026 0.031c9.586 7.022 20.509 13.896 31.905 20.002l1.494 0.731c8.592 3.621 14.514 11.973 14.514 21.708 0 6.805-2.894 12.935-7.518 17.225l-0.015 0.014c-2.574 3.006-5.239 5.953-7.819 8.9-5.495-3.373-10.046-6.608-14.99-9.024-2.498-1.182-5.426-1.872-8.516-1.872-0.31 0-0.619 0.007-0.925 0.021l0.044-0.002c-0.179-0.013-0.389-0.021-0.599-0.021-4.379 0-7.987 3.307-8.461 7.56l-0.003 0.039c-0.753 5.835-1.225 11.709-1.814 17.584 13.687-5.121 26.975-10.622 40.603-15.010 8.625-2.77 17.859-3.569 26.674-5.829 7.204-1.853 14.29-4.434 21.343-6.922 5.449-1.925 10.773-4.204 18.946-7.433l-6.752-2.855c5.208-3.566 8.58-9.482 8.58-16.185 0-1.804-0.244-3.551-0.702-5.21l0.032 0.137c0.196-16.778 0.21-33.557 0.301-50.335-0.569-27.691-3.608-54.315-8.909-80.113l0.487 2.836c-5.436-30.316-12.927-56.985-22.656-82.551l1.045 3.126c-18.275-49.404-41.827-92.157-70.713-130.681l0.947 1.32c-30.66-41.046-65.942-76.323-105.646-106.011l-1.35-0.966c-25.223-19.35-53.818-36.631-84.253-50.593l-2.782-1.144c-23.15-10.085-46.7-19.496-70.689-27.335-14.949-4.704-33.767-9.231-52.979-12.617l-2.89-0.422c-21.369-4.592-46.044-7.39-71.313-7.725l-0.26-0.003c-10.786-0.072-21.572-0.046-32.358-0.164-29.226 0.268-57.58 3.283-85.030 8.799l2.874-0.482c-35.632 6.479-67.132 15.761-97.139 27.954l3.254-1.169c-33.283 13.176-61.808 28.082-88.517 45.534l1.869-1.146c-33.153 21.395-61.98 44.84-88.004 71.068l-0.033 0.033c-32.989 33.266-61.544 71.006-84.655 112.212l-1.352 2.623c-13.644 23.884-26.105 51.686-35.846 80.736l-0.979 3.365c-6.055 18.242-12.043 41.4-16.675 65.044l-0.634 3.883c-3.929 19.81-5.416 40.092-7.95 60.178-0.040 0.685-0.062 1.486-0.062 2.292s0.023 1.607 0.067 2.402l-0.005-0.11c3.113-5.507 8.929-9.164 15.599-9.164 1.419 0 2.799 0.165 4.123 0.478l-0.121-0.024-10.518 7.937 8.671 7.544c3.831-5.278 7.204-9.168 9.725-13.55 7.904-12.794 21.852-21.191 37.76-21.191 0.841 0 1.677 0.023 2.506 0.070l-0.115-0.005c10-0.406 20.046 0.242 30.033-0.275 0.84 0.064 1.819 0.1 2.807 0.1 7.822 0 15.112-2.28 21.241-6.213l-0.157 0.094c1.564-1.024 2.871-2.3 3.899-3.785l0.030-0.046c3.719-6.955 10.932-11.607 19.231-11.607 1.397 0 2.764 0.132 4.087 0.384l-0.136-0.021c2.193 1.166 4.043 2.687 5.542 4.507l0.025 0.031-0.498 1.965-18.062 4.493c0 4.014 0.046 8.514 0 13.098 0.163 0.623 0.256 1.337 0.256 2.074 0 4.702-3.812 8.514-8.514 8.514-0.903 0-1.773-0.141-2.589-0.401l0.060 0.017c-3.988-0.288-7.944-0.989-12.489-1.578 1.868 5.907 2.945 12.7 2.945 19.745 0 3.308-0.237 6.56-0.696 9.741l0.043-0.363c-8.98-4.27-16.13-11.167-20.604-19.69l-0.117-0.245-16.687-1.84c-1.468 2.453-3.011 5.428-4.388 8.493l-0.229 0.57c-1.179 2.986-1.146 6.49-2.475 9.385-0.832 2.512-1.312 5.405-1.312 8.409 0 11.457 6.98 21.284 16.92 25.46l0.182 0.068c6.195 3.15 12.371 6.326 18.566 9.483 2.057 1.63 4.689 2.614 7.552 2.614 4.837 0 9.017-2.812 10.996-6.89l0.032-0.073c2.58-3.274 5.298-6.51 8.658-10.622 1.075 22.161 9.891 42.077 23.777 57.282l-0.064-0.071-2.351 10.328 4.8 2.449c1.512 7.324 5.498 13.534 11.027 17.861l0.066 0.050c5.121 5.77 10.269 11.526 15.141 17.505 3.884 4.768 7.368 9.856 11.081 14.879l4.787-5.403c10.535 7.114 18.721 16.983 23.614 28.581l0.159 0.424-14.859-10.688c-0.475 1.608-0.749 3.455-0.749 5.367 0 4.302 1.386 8.281 3.735 11.514l-0.039-0.057-8.081-2.855-1.081 1.31c18.165 7.975 32.821 21.147 42.427 37.625l0.232 0.431-12.305-1.054-1.827 2.698 10.131 5.776c-9.323 6.29-15.522 16.598-16.1 28.384l-0.003 0.085c-3.919-8.419-12.308-14.151-22.035-14.151-0.478 0-0.952 0.014-1.423 0.041l0.065-0.003c1.16 2.541 2.426 4.716 3.875 6.751l-0.084-0.123c1.203 1.278 1.942 3.003 1.942 4.902 0 2.369-1.151 4.469-2.924 5.772l-0.020 0.014c-1.058 1.29-2.651 2.106-4.435 2.106-1.959 0-3.689-0.985-4.721-2.486l-0.013-0.019c-6.815-6.334-13.035-13.083-18.706-20.285l-0.286-0.377c-6.254-8.618-10.714-18.527-16.647-27.414-3.118-4.965-4.967-11.001-4.967-17.469 0-0.851 0.032-1.695 0.095-2.531l-0.007 0.111c-0.438-4.746-1.703-9.102-3.653-13.060l0.097 0.218c-1.473-1.424-3.253-2.541-5.229-3.243l-0.102-0.031v22.79c-2.533-1.111-5.485-1.758-8.588-1.758-3.28 0-6.391 0.723-9.183 2.017l0.135-0.056c-2.613 0.456-5.622 0.717-8.691 0.717-2.355 0-4.673-0.153-6.947-0.451l0.268 0.029-3.15 12.030 41.075 45.901-5.508 3.052c9.313 6.438 18.835 12.443 27.682 19.293 4.491 1.907 7.583 6.281 7.583 11.376 0 2.851-0.968 5.476-2.594 7.565l0.021-0.028 19.601 14.676c1.659-5.375 2.615-11.553 2.615-17.955 0-3.534-0.291-7-0.851-10.375l0.050 0.367-16.7-12.096c5.376-5.025 12.62-8.11 20.584-8.11 6.013 0 11.615 1.759 16.32 4.79l-0.119-0.072-5.062 8.435c5.287 5.163 8.776 12.146 9.455 19.933l0.008 0.119c9.168 2.155 21.775-3.052 25.194 11.729-5.733 2.581-12.428 4.085-19.474 4.085-1.181 0-2.352-0.042-3.511-0.125l0.156 0.009 5.992 6.326c-9.503 5.643-20.513 10.137-32.194 12.893l-0.8 0.159v-8.965l-8.121-2.79 1.794 7.204c-8.526-1.648-15.909-5.726-21.608-11.477l-0.003-0.003-4.709 0.891c-3.576-3.226-6.652-6.908-9.162-10.976l-0.124-0.216c-0.481-2.25-0.756-4.834-0.756-7.483 0-2.024 0.161-4.010 0.47-5.946l-0.028 0.213 16.372 5.003-14.054-16.981c-8.703 6.903-11.231 6.752-19.535-1.48-2.62-2.62-5.239-5.324-7.629-8.18-2.047-2.964-4.487-5.479-7.282-7.543l-0.086-0.061-48.049-15.567 0.19-2.214-16.274 6.117-9.273-3.117 2.685 8.795c2.931-2.873 6.95-4.645 11.382-4.645 2.611 0 5.078 0.615 7.265 1.708l-0.094-0.043c8.166 3.366 16.667 5.894 24.886 9.168 5.141 2.050 10.013 4.781 14.787 7.106l-7.040 19.398c-0.712 0.256-1.533 0.404-2.389 0.404-3.072 0-5.698-1.905-6.763-4.598l-0.017-0.049-17.224-3.51c1.965 5.023-1.644 6.084-6.49 6.798l6.47 10.793 1.388-6.326 10 4.126 1.179-4.584c11.699 2.868 21.585 9.353 28.67 18.182l0.080 0.103c-0.959 0.375-2.070 0.592-3.231 0.592-2.703 0-5.131-1.176-6.801-3.045l-0.008-0.009c-1.679-1.684-4.001-2.726-6.567-2.726-3.776 0-7.026 2.257-8.472 5.496l-0.023 0.059c-1.546-0.655-3.274-1.277-4.899-2.017-1.375-0.616-2.698-1.31-4.584-2.292 92.816 138.944 249.012 229.22 426.293 229.22 143.418 0 273.037-59.082 365.845-154.234l0.103-0.106zM156.8 374.678c1.493-5.305 2.954-9.633 3.929-14.074 4.008-16.884 6.319-36.276 6.346-56.204v-0.019c0.049-2.548 0.892-4.889 2.289-6.799l-0.023 0.033c5.545-7.925 11.163-14.859 17.223-21.379l-0.111 0.121c7.869-8.219 16.449-15.627 25.685-22.171l0.55-0.37c8.447-5.153 18.386-10.244 28.701-14.619l1.541-0.581c3.289-1.669 5.664-4.73 6.367-8.387l0.012-0.075c3.969-12.482 8.35-24.886 13.543-36.91 5.829-13.491 14.27-26.012 18.808-39.863 9.791-29.831 23.013-55.751 39.569-79.144l-0.616 0.918c1.176-1.506 2.634-2.734 4.302-3.619l0.072-0.035c6.392-5.204 10.441-13.073 10.441-21.887 0-2.078-0.225-4.104-0.652-6.054l0.034 0.186c-0.686-0.911-1.099-2.062-1.099-3.309 0-2.046 1.111-3.833 2.762-4.79l0.027-0.014h9.509l-1.572-10.707c5.049-5.632 9.771-10.354 13.864-15.567 7.839-9.246 18.031-16.269 29.656-20.165l0.469-0.136c1.809-0.798 3.919-1.262 6.137-1.262 0.895 0 1.772 0.076 2.625 0.221l-0.092-0.013c10.112 2.541 20.072 5.671 30.053 8.71 0.79 0.707 1.414 1.583 1.817 2.573l0.017 0.047c-3.929 0.943-7.295 1.932-10.707 2.534-15.825 3.111-28.38 14.519-33.087 29.413l-0.083 0.306c-6.876 17.152-12.954 34.618-19.306 51.736 2.451 2.77 4.477 5.989 5.929 9.506l0.083 0.226c0.131 1.3 0.206 2.81 0.206 4.337 0 3.125-0.313 6.177-0.911 9.126l0.050-0.293c14.715 6.359 16.464 13.196 7.322 31.245 0.861-0.025 1.682-0.134 2.474-0.318l-0.084 0.016c1.553-0.786 3.386-1.246 5.327-1.246 6.633 0 12.011 5.377 12.011 12.011 0 1.263-0.195 2.48-0.556 3.623l0.023-0.085c-0.583 5.311-1.277 10.609-1.906 15.783 0.546 0.745 1.163 1.391 1.854 1.949l0.019 0.015c6.903 3.844 7.171 4.682 3.353 11.624-1.559 2.829-3.124 5.652-4.748 8.442-1.68 1.939-2.703 4.486-2.703 7.272 0 3.453 1.572 6.539 4.040 8.581l0.019 0.015c5.089 6.092 11.421 10.968 18.623 14.272l0.329 0.135c5.815 2.692 11.402 5.894 16.746 8.664-0.354 21.544-3.896 42.135-10.174 61.493l0.417-1.486c6.587 7.070 10.63 16.585 10.63 27.045 0 4.97-0.913 9.728-2.58 14.113l0.091-0.273c-1.435 3.214-3.714 5.834-6.558 7.647l-0.070 0.042c-7.935 4.665-17.132 8.874-26.768 12.132l-1.059 0.311c-6.069 2.943-13.2 4.663-20.734 4.663-8.249 0-16.017-2.063-22.814-5.701l0.26 0.127c-3.463 6.791-10.405 11.362-18.414 11.362-2.687 0-5.253-0.514-7.606-1.45l0.139 0.049-17.4 2.652c-1.221 1.988-2.326 4.283-3.192 6.692l-0.083 0.263c-2.708 11.119-12.581 19.245-24.352 19.245-0.254 0-0.508-0.004-0.761-0.011l0.037 0.001c-0.709-0.021-1.544-0.033-2.381-0.033-12.047 0-23.515 2.481-33.921 6.959l0.558-0.214c-6.053 1.478-11.049 5.219-14.141 10.255l-0.057 0.099c-1.192 0.196-2.565 0.309-3.964 0.309-4.628 0-8.97-1.227-12.717-3.374l0.125 0.066c-1.904-1.243-4.235-1.983-6.739-1.983-0.582 0-1.154 0.040-1.715 0.117l0.065-0.007c-0.583 0.059-1.26 0.093-1.945 0.093-6.073 0-11.528-2.647-15.274-6.85l-0.018-0.020c-1.375-1.153-2.692-2.364-5.036-4.427v13.988c-5.619-4.034-10.518-7.466-15.292-11.061-0.802-0.64-1.311-1.617-1.311-2.714 0-0.031 0-0.063 0.001-0.094v0.005c-0.201-5.563-2.364-10.585-5.814-14.429l0.019 0.021zM228.308 796.304c0.228 5.138 3.375 9.489 7.814 11.454l0.084 0.033c7.859 5.626 15.966 10.832 24.034 16.123 3.595 2.358 7.335 4.499 11.002 6.732l0.825-1.415c-12.448-9.010-23.146-19.394-32.197-31.116l-0.266-0.358 14.571 2.521-7.014-8.985c8.715 2.651 18.732 4.178 29.106 4.178 4.215 0 8.372-0.252 12.455-0.742l-0.493 0.048-7.374-18.226 13.936 2.718 0.314-1.559-10.956-5.462 8.428-3.7c-3.331-3.13-6.002-6.92-7.81-11.166l-0.082-0.216c-0.806-3.871-1.267-8.32-1.267-12.876 0-8.262 1.517-16.169 4.287-23.459l-0.151 0.454c2.116-4.437 6.451-7.509 11.531-7.785l0.035-0.002c0.657-0.073 1.419-0.115 2.191-0.115 8.867 0 16.447 5.507 19.509 13.287l0.049 0.142c5.372 13.94 12.99 25.891 22.527 36.015l-0.051-0.055c15.796 17.239 33.504 32.317 52.901 45.029l1.055 0.649q9.725 6.673 19.476 13.32l-0.557 1.631h-10.721c8.317 2.244 15.603 5.459 22.254 9.599l-0.348-0.202c-2.063 1.429-4.501 2.93-7.016 4.309l-0.444 0.223c-2.62 1.244-5.403 2.024-8.821 3.274 13.34 2.898 23.802 12.811 27.443 25.599l0.062 0.256-7.544 0.386 7.918 6.732-6.68 3.085 33.157 25.98c-1.29 0.731-2.833 1.162-4.477 1.162-0.887 0-1.745-0.126-2.556-0.36l0.065 0.016c-5.894-1.801-11.657-4.244-17.636-5.783-1.234-0.444-2.658-0.7-4.142-0.7-1.778 0-3.47 0.368-5.004 1.033l0.081-0.031c-3.039 2.168-6.829 3.467-10.922 3.467-2.171 0-4.257-0.365-6.199-1.038l0.133 0.040c-9.542-2.62-18.756-6.654-28.403-8.618-9.528-2.556-17.838-5.925-25.606-10.163l0.602 0.301c-3.981-1.96-7.326-3.92-10.519-6.088l0.302 0.194c-8.463-4.457-15.764-9.443-22.428-15.152l0.162 0.135c-4.097-3.887-9.175-6.778-14.824-8.264l-0.239-0.053c-3.045-1.041-6.143-1.965-9.168-3.032-10.812-3.884-21.566-7.937-32.411-11.723-19.778-6.903-39.948-12.823-59.268-20.826-9.404-3.929-22.188-7.551-18.677-22.882-21.29-3.726-28.088-10.426-22.672-22.594l12.495 2.96c-11.438-6.113-21.222-12.459-30.426-19.524l0.517 0.381h7.204v-6.686c15.957 5.189 29.755 11.564 42.622 19.325l-0.912-0.51-0.596 1.487-17.459-6.51-0.845 2.083c9.367 3.402 17.378 7.255 24.932 11.792l-0.642-0.358c7.215 6.168 13.679 12.77 19.52 19.902l0.218 0.275zM869.112 221.67c0-3.929-0.203-6.549 0.039-9.168 0.246-5.926 4.247-10.854 9.675-12.484l0.096-0.025c0.337-0.028 0.729-0.044 1.125-0.044 5.782 0 10.773 3.384 13.101 8.28l0.038 0.088c1.159 2.417 2.102 4.944 3.039 7.459 4.224 11.29 8.402 22.594 12.613 33.884 2.895 7.76 6.156 15.41 8.631 23.301 0.458 1.492 0.722 3.207 0.722 4.983 0 6.307-3.328 11.836-8.323 14.928l-0.075 0.043c-2.633-4.899-5.718-9.118-9.3-12.857l0.020 0.021c-9.832-8.721-16.82-20.451-19.521-33.738l-0.067-0.395c0.029-0.344 0.046-0.743 0.046-1.147 0-5.239-2.808-9.822-7.001-12.327l-0.066-0.036c-2.43 3.157-4.506 6.3-7.020 9.031-1.563 2.175-4.085 3.574-6.934 3.574-2.312 0-4.408-0.921-5.943-2.417l0.002 0.002c-2.655-1.573-4.407-4.423-4.407-7.682 0-1.896 0.593-3.653 1.603-5.097l-0.019 0.029c1.382-5.544 6.318-9.587 12.199-9.587 2.090 0 4.061 0.511 5.795 1.415l-0.069-0.033zM718.552 879.959l-0.38 2.24c-15.062-0.616-30.177-0.864-45.187-2.043-0.142 0.005-0.308 0.008-0.475 0.008-5.989 0-11.159-3.504-13.573-8.574l-0.039-0.091c10.263-4.155 22.167-6.566 34.634-6.566 6.016 0 11.901 0.561 17.605 1.635l-0.588-0.092-12.535 6.85c0.676-0.058 1.463-0.091 2.258-0.091 6.992 0 13.39 2.544 18.318 6.757l-0.039-0.032zM414.441 791.51c3.181-1.367 6.883-2.162 10.77-2.162 0.091 0 0.181 0 0.272 0.001h-0.014c12.172 2.616 22.856 7.762 31.916 14.881l-0.167-0.127c3.198 1.564 5.361 4.793 5.361 8.528 0 0.866-0.116 1.705-0.334 2.501l0.015-0.066c-1.884 1.355-4.239 2.167-6.782 2.167-2.512 0-4.839-0.792-6.745-2.139l0.037 0.025q-17.027-8.684-34.054-17.466zM142.006 710.637c1.497 5.742 3.364 10.714 5.674 15.43l-0.212-0.479c3.037 4 6.303 7.528 9.88 10.715l0.074 0.065-0.989 1.434h-8.638l-8.081-10.138c-1.2 2.018-3.37 3.35-5.851 3.35-2.238 0-4.223-1.084-5.459-2.755l-0.013-0.018c-4.159-4.1-7.629-8.907-11.742-13.825l9.018-4.958 4.971 5.861c0.373-4.676-6.221-9.594 1.965-13.386zM244.654 614.696l14.126-1.506-1.703 14.453-11.133 1.46 3.111 8.415c-11.727-6.161-19.68-18.096-20.084-31.924l-0.001-0.054c2.993 1.48 5.848 2.672 8.474 4.244 2.94 1.762 5.684 3.864 7.197 4.905zM557.194 709.039c13.93-10.039 23.439-3.274 26.851 18.756l-24.048-4.237 1.873-9.168zM526.414 879.769c15.77-0.563 20.996 6.693 15.062 20.76l-5.422-0.969-1.087-10.786-9.823-2.259zM124.672 435.662c3.905 2.58 8.697 4.115 13.848 4.115 5.706 0 10.972-1.885 15.21-5.066l-0.065 0.047c1.328-0.898 2.966-1.434 4.728-1.434 3.002 0 5.642 1.554 7.158 3.902l0.020 0.033c-5.099 4.902-12.040 7.922-19.686 7.922-8.429 0-16.002-3.67-21.207-9.498l-0.024-0.028zM527.763 918.225c-10.138 0.819-14.958-0.864-16.47-6.935-0.315-2.304-0.495-4.968-0.495-7.673 0-2.1 0.108-4.174 0.32-6.218l-0.021 0.256 7.859 0.766v10.629l9.895 2.882zM677.366 628.704l-8.625-1.12 2.259-14.316c8.677 3.55 9.83 6.352 6.346 15.429zM852.772 212.148l2.024 0.138c0.724 1.056 1.197 2.336 1.308 3.719l0.002 0.027c-3.499 6.886-8.523 12.547-14.653 16.699l-0.154 0.099c1.865-8.161 5.894-15.193 11.45-20.684l0.004-0.004zM142.327 748.785c-9.647-3.759-12.286-7.702-9.168-13.098 10.19 2.927 10.956 3.962 9.149 13.098z" />
<glyph unicode="&#xe90e;" glyph-name="close" d="M-0.003 62.689l897.305 897.305 126.699-126.699-897.305-897.305-126.699 126.699zM-0.003 833.302l126.699 126.699 897.305-897.305-126.699-126.699-897.305 897.305z" />
<glyph unicode="&#xe90f;" glyph-name="star-filled" d="M514.59 929.882l159.021-322.199 355.569-51.682-257.265-250.82 60.717-354.123-318.042 167.213-318.042-167.213 60.717 354.123-257.265 250.82 355.569 51.682 159.021 322.199z" />
<glyph unicode="&#xe910;" glyph-name="ok" d="M823.168 712.832l-439.168-439.168-183.168 183.168c-16.683 16.683-43.691 16.683-60.331 0s-16.683-43.691 0-60.331l213.333-213.333c16.683-16.683 43.691-16.683 60.331 0l469.333 469.333c16.683 16.683 16.683 43.691 0 60.331s-43.691 16.683-60.331 0z" />
<glyph unicode="&#xe911;" glyph-name="canc" d="M225.835 652.502l225.835-225.835-225.835-225.835c-16.683-16.683-16.683-43.691 0-60.331s43.691-16.683 60.331 0l225.835 225.835 225.835-225.835c16.683-16.683 43.691-16.683 60.331 0s16.683 43.691 0 60.331l-225.835 225.835 225.835 225.835c16.683 16.683 16.683 43.691 0 60.331s-43.691 16.683-60.331 0l-225.835-225.835-225.835 225.835c-16.683 16.683-43.691 16.683-60.331 0s-16.683-43.691 0-60.331z" />
<glyph unicode="&#xe912;" glyph-name="tri-up" d="M0 192l512 512 512-512h-1024z" />
<glyph unicode="&#xe913;" glyph-name="star-empty" d="M194.913-40.001l60.569 353.137-256.571 250.058 354.57 51.526 158.516 321.28 158.544-321.28 354.545-51.526-256.543-250.058 60.592-353.137-317.135 166.77zM512 187.004l246.281-129.473-47.046 274.257 199.229 194.155-275.35 40.013-123.114 249.469-123.091-249.469-275.35-40.013 199.235-194.155-47.018-274.257z" />
<glyph unicode="&#xe914;" glyph-name="arrow-line-left" d="M723.893-64l-512 512 512 512 88.214-88.214-423.786-423.786 423.786-423.786-88.214-88.214z" />
<glyph unicode="&#xe915;" glyph-name="arrow-line-right" d="M300.107-64l-88.214 88.214 423.786 423.786-423.786 423.786 88.214 88.214 512-512-512-512z" />
<glyph unicode="&#xe916;" glyph-name="arrow-line-up" d="M1023.997 236.108l-88.213-88.213-423.784 423.784-423.784-423.784-88.213 88.213 511.997 511.997 511.997-511.997z" />
<glyph unicode="&#xe917;" glyph-name="arrow-line-down" d="M0.003 659.892l88.213 88.213 423.784-423.784 423.784 423.784 88.213-88.213-511.997-511.997-511.997 511.997z" />
<glyph unicode="&#xe918;" glyph-name="filter-up" d="M0 115.2l512 640 512-640h-1024z" />
<glyph unicode="&#xe919;" glyph-name="filter-down" d="M0 755.2l512-640 512 640h-1024z" />
<glyph unicode="&#xe91a;" glyph-name="tri-gain" d="M0 21.333l497.778 853.333 497.778-853.333h-995.556z" />
<glyph unicode="&#xe91b;" glyph-name="tri-loss" d="M0 874.667l497.778-853.333 497.778 853.333h-995.556z" />
<glyph unicode="&#xe91c;" glyph-name="add" horiz-adv-x="1020" d="M509.993 959.994c-0.597 0.003-1.303 0.004-2.010 0.004-282.771 0-512.003-229.232-512.003-512.003s229.232-512.003 512.003-512.003c282.771 0 512.003 229.232 512.003 512.003 0 0.007 0 0.014 0 0.022v-0.002c0 0.122 0 0.266 0 0.41 0 281.978-228.14 510.671-509.908 511.568h-0.086zM509.993-4.007c-0.597-0.003-1.303-0.004-2.010-0.004-249.635 0-452.004 202.369-452.004 452.004s202.369 452.004 452.004 452.004c249.627 0 451.991-202.356 452.004-451.98v-0.002c0-0.147 0-0.321 0-0.495 0-248.832-201.283-450.651-449.91-451.521h-0.084zM791.593 478.015h-251.601v252.783c0 16.568-13.431 30-30 30s-30-13.431-30-30v0-252.783h-251.601c-16.568 0-30-13.431-30-30s13.431-30 30-30v0h251.601v-252.801c0-16.568 13.431-30 30-30s30 13.431 30 30v0 252.801h251.601c16.568 0 30 13.431 30 30s-13.431 30-30 30v0z" />
<glyph unicode="&#xe91d;" glyph-name="checkbox-on" d="M512 960c-282.774 0-512.007-229.233-512.007-512.007s229.233-512.007 512.007-512.007c282.774 0 512.007 229.233 512.007 512.007v0c0 282.774-229.233 512.007-512.007 512.007v0zM862.988 617.935l-456.294-456.294-245.646 245.72c-9.528 9.855-15.399 23.297-15.399 38.11 0 30.297 24.561 54.858 54.858 54.858 14.813 0 28.255-5.871 38.126-15.414l168.062-168.128 378.717 378.717c9.927 9.926 23.641 16.064 38.788 16.064 30.298 0 54.86-24.562 54.86-54.86 0-15.151-6.142-28.867-16.072-38.795v0z" />
<glyph unicode="&#xe91e;" glyph-name="clock" d="M1007.863 614.011l-143.845 71.768-61.987-147.762c-1.285-2.98-2.031-6.45-2.031-10.093 0-14.412 11.683-26.095 26.095-26.095 10.766 0 20.011 6.522 23.997 15.829l0.066 0.17 27.76 66.19c15.161-40.046 23.939-86.343 23.939-134.691 0-215.871-174.999-390.869-390.869-390.869s-390.869 174.999-390.869 390.869c0 167.308 105.116 310.062 252.909 365.826l2.692 0.891c40.495 15.689 87.359 24.778 136.348 24.778 59.168 0 115.238-13.261 165.402-36.971l-2.359 1.002c3.203-1.513 6.958-2.395 10.92-2.395 14.41 0 26.090 11.681 26.090 26.090 0 10.448-6.143 19.461-15.012 23.628l-0.16 0.068c-54.312 25.497-117.951 40.379-185.062 40.379-178.275 0-332.023-105-402.779-256.533l-1.144-2.73c-25.839-54.668-40.925-118.76-40.925-186.374 0-177.683 104.174-331.035 254.779-402.31l2.703-1.15c54.030-25.563 117.381-40.488 184.217-40.488 2.915 0 5.82 0.027 8.721 0.084l-0.434-0.007c242.403 4.551 437.163 202.128 437.163 445.192 0 52.509-9.091 102.892-25.778 149.668l0.969-3.109 55.21-27.555c3.392-1.728 7.397-2.741 11.639-2.741 14.41 0 26.091 11.682 26.091 26.091 0 10.167-5.815 18.978-14.304 23.282l-0.148 0.069zM529.773 694.168c-0.275 14.197-11.848 25.6-26.085 25.6-14.409 0-26.089-11.681-26.089-26.089 0-0.172 0.002-0.345 0.005-0.517v0.027l4.559-242.61c0.176-8.763 4.645-16.446 11.387-21.049l0.089-0.058 239.553-162.171c4.099-2.807 9.167-4.485 14.626-4.485 14.407 0 26.087 11.68 26.087 26.087 0 8.948-4.505 16.843-11.371 21.544l-0.089 0.057-228.353 154.587z" />
<glyph unicode="&#xe91f;" glyph-name="eye-closed" d="M1012.951 504.192l-62.29 49.055c18.331 17.935 35.297 37.067 50.848 57.341l0.941 1.278c3.19 4.222 5.109 9.56 5.109 15.345 0 8.355-4.003 15.775-10.195 20.448l-0.065 0.047c-4.227 3.169-9.56 5.075-15.338 5.075-8.344 0-15.759-3.974-20.457-10.133l-0.046-0.063c-100.444-127.656-254.935-208.882-428.399-208.882-2.796 0-5.588 0.021-8.374 0.063l0.421-0.005c-2.352-0.037-5.128-0.058-7.909-0.058-173.477 0-327.982 81.225-427.56 207.718l-0.883 1.163c-4.73 6.236-12.144 10.222-20.489 10.222-5.786 0-11.125-1.916-15.416-5.149l0.065 0.047c-6.257-4.719-10.26-12.14-10.26-20.495 0-5.786 1.919-11.123 5.156-15.41l-0.047 0.065c13.076-17.143 26.071-32.301 39.861-46.69l-0.181 0.19-77.681-61.174c-5.958-4.73-9.745-11.972-9.745-20.099 0-6.009 2.070-11.534 5.536-15.901l-0.040 0.053c4.723-5.948 11.954-9.728 20.068-9.728 0.011 0 0.023 0 0.034 0h-0.002c0.010 0 0.022 0 0.034 0 6.006 0 11.528 2.072 15.891 5.539l-0.052-0.040 83.666 65.889c15.060-13.218 31.536-26.133 48.709-38.118l1.836-1.214c-1.157-1.029-2.193-2.143-3.117-3.348l-0.042-0.057-56.602-92.6c-2.349-3.799-3.741-8.406-3.741-13.337 0-9.204 4.849-17.276 12.131-21.8l0.109-0.063c3.775-2.353 8.358-3.748 13.267-3.748 0.029 0 0.057 0 0.085 0h-0.004c0.002 0 0.005 0 0.007 0 9.202 0 17.269 4.855 21.782 12.143l0.063 0.11 56.602 92.6c0.486 1.023 0.942 2.244 1.296 3.508l0.040 0.168c16.864-9.922 37.293-20.273 58.356-29.44l3.842-1.49-0.338-0.676-28.549-104.724c-0.566-2.010-0.892-4.319-0.892-6.703 0-11.742 7.893-21.64 18.662-24.68l0.181-0.044c2.008-0.572 4.314-0.901 6.696-0.901 0.018 0 0.037 0 0.055 0h-0.003c11.746 0.001 21.643 7.913 24.656 18.697l0.043 0.18 27.336 100.27c22.93-7.82 51.095-15.063 79.955-20.315l3.803-0.574-7.496-97.111c-0.046-0.574-0.072-1.243-0.072-1.918 0-13.465 10.384-24.506 23.581-25.55l0.089-0.006c0.65-0.051 1.3-0.077 2.002-0.077 13.434 0.004 24.443 10.385 25.446 23.563l0.005 0.086 7.204 93.343c20.818-2.048 41.784-3.517 62.976-3.517 13.092 0 25.933 1.377 38.912 2.171l5.161-93.184c0.775-13.509 11.916-24.17 25.548-24.177h0.001l1.398 0.051c13.515 0.746 24.192 11.887 24.192 25.522 0 0.512-0.015 1.020-0.045 1.524l0.003-0.070-5.274 95.299c32.555 4.766 61.029 11.125 88.7 19.349l-4.42-1.127 26.194-97.367c3.031-10.993 12.936-18.934 24.698-18.944h0.001c0.005 0 0.012 0 0.018 0 2.361 0 4.647 0.32 6.818 0.918l-0.18-0.042c10.992 3.038 18.929 12.95 18.929 24.716 0 2.369-0.322 4.662-0.924 6.84l0.042-0.18-26.911 100.040c24.672 9.372 44.69 18.441 64.090 28.536l-3.336-1.58 55.608-86.492c4.627-7.113 12.537-11.75 21.53-11.75 0.007 0 0.014 0 0.021 0h-0.001c5.148 0.011 9.937 1.537 13.948 4.156l-0.098-0.060c7.111 4.627 11.747 12.536 11.747 21.528 0 5.144-1.517 9.933-4.128 13.945l0.060-0.099-53.76 83.635c22.319 14.17 41.491 28.181 59.709 43.301l-0.941-0.759 68.859-54.226c4.31-3.427 9.832-5.499 15.838-5.499 0.012 0 0.024 0 0.035 0h-0.002c0.010 0 0.021 0 0.033 0 8.114 0 15.345 3.78 20.028 9.675l0.040 0.053c3.406 4.307 5.464 9.818 5.464 15.808 0 8.138-3.797 15.389-9.717 20.078l-0.053 0.041z" />
<glyph unicode="&#xe920;" glyph-name="eye-open" d="M512 755.2c-219.193-4.781-409.008-126.076-510.445-304.234l-1.555-2.966c102.993-181.124 292.808-302.419 511.338-307.189l0.662-0.011c219.193 4.781 409.008 126.076 510.445 304.234l1.555 2.966c-102.993 181.124-292.808 302.419-511.338 307.189l-0.662 0.011zM512 202.24c-135.73 0-245.76 110.030-245.76 245.76v0c0 135.73 110.030 245.76 245.76 245.76v0c135.73 0 245.76-110.030 245.76-245.76v0c0-135.73-110.030-245.76-245.76-245.76v0zM573.44 482.58c-33.932 0-61.44 27.508-61.44 61.44v0c0.191 23.357 13.514 43.559 32.94 53.6l0.34 0.16c-9.975 2.376-21.447 3.771-33.233 3.84h-0.047c-84.831 0-153.6-68.769-153.6-153.6v0c0-84.831 68.769-153.6 153.6-153.6v0c84.831 0 153.6 68.769 153.6 153.6v0c-0.109 34.887-11.936 66.99-31.749 92.603l0.261-0.351c-1.822-32.143-28.257-57.538-60.657-57.692h-0.015z" />
<glyph unicode="&#xe921;" glyph-name="notifications" horiz-adv-x="875" d="M792.534 252.155v154.908c0 197.492-108.893 343.319-273.105 379.667v91.164c0 45.346-36.76 82.106-82.106 82.106s-82.106-36.76-82.106-82.106v0-91.173c-164.231-36.343-273.161-182.174-273.161-379.657v-154.95c-47.62-12.984-82.051-55.847-82.051-106.753 0-0.136 0-0.271 0.001-0.407v0.021-0.079c0.158-45.763 47.63-80.449 141.033-103.131 57.241-13.303 124.083-22.389 192.527-25.286l2.266-0.076c11.2-46.425 52.38-80.378 101.489-80.378 49.278 0 90.57 34.186 101.456 80.135l0.141 0.708c71.123 3.388 138.071 12.798 202.879 27.793l-7.602-1.481c93.366 22.919 140.567 57.716 140.418 103.331-0.061 50.619-34.556 93.164-81.317 105.474l-0.761 0.17zM409.111 877.894c0 15.581 12.631 28.211 28.211 28.211s28.211-12.631 28.211-28.211v-83.489c-9.309 0.661-18.618 1.359-28.211 1.359s-18.874-0.698-28.211-1.359v83.489zM437.318-10.082c-17.965 0.238-33.615 9.926-42.23 24.312l-0.126 0.227c11.976-0.233 23.552-0.801 35.775-0.801h7.061q21.122 0.079 41.756 0.619c-8.758-14.507-24.346-24.116-42.196-24.357h-0.035zM721.371 95.576c-80.281-17.872-172.488-28.11-267.086-28.11-5.872 0-11.735 0.039-17.588 0.118l0.887-0.009c-7.402-0.156-16.127-0.245-24.873-0.245-91.703 0-181.121 9.779-267.27 28.351l8.304-1.501c-73.16 17.734-99.789 40.155-99.84 50.893 0.040 30.714 24.518 55.697 55.031 56.551l0.079 0.002h26.945v205.438c0 197.129 123.951 334.815 301.368 334.815s301.317-137.686 301.317-334.815v-205.424h26.945c30.458-0.040 55.133-24.74 55.133-55.203 0-0.010 0-0.020 0-0.030v0.002c0.074-9.155-20.666-31.581-99.351-50.865v0z" />
<glyph unicode="&#xe922;" glyph-name="order-hist" d="M770.018 844.434h-122.941c-13.049 0-23.629-10.578-23.629-23.629s10.578-23.629 23.629-23.629v0h122.941c37.654-0.042 68.167-30.555 68.209-68.205v-673.516c-0.042-37.654-30.555-68.167-68.205-68.209h-428.617c-37.654 0.042-68.167 30.555-68.209 68.205v379.37c0 13.049-10.578 23.629-23.629 23.629s-23.629-10.578-23.629-23.629v0-379.361c0.067-63.742 51.723-115.397 115.458-115.465h428.619c63.742 0.067 115.397 51.723 115.465 115.458v673.519c-0.070 63.74-51.725 115.393-115.458 115.46h-0.007zM609.834 706.231c-0.154 131.351-106.594 237.79-237.929 237.944h-0.015c-58.263-0.217-111.497-21.566-152.477-56.78l0.312 0.262-27.592 27.592v-85.722h85.717l-24.714 24.714c32.066 26.43 73.522 42.514 118.727 42.677h0.035c105.299-0.008 190.659-85.373 190.659-190.673 0-105.306-85.368-190.673-190.673-190.673-105.301 0-190.665 85.359-190.673 190.658v0.001c0 13.049-10.578 23.629-23.629 23.629s-23.629-10.578-23.629-23.629v0c0.85-130.765 107.053-236.445 237.939-236.445s237.087 105.677 237.939 236.363v0.082zM358.602 863.956c-13.049 0-23.629-10.578-23.629-23.629v0-128.569c0-0.009 0-0.019 0-0.029 0-6.53 2.658-12.439 6.95-16.704l90.931-90.908 33.411 33.411-84.035 84.016v118.782c0 13.049-10.578 23.629-23.629 23.629v0zM770.018 164.926h-428.612c-13.049 0-23.629-10.578-23.629-23.629s10.578-23.629 23.629-23.629v0h428.612c13.049 0 23.629 10.578 23.629 23.629s-10.578 23.629-23.629 23.629v0zM770.018 332.214h-428.612c-13.049 0-23.629-10.578-23.629-23.629s10.578-23.629 23.629-23.629v0h428.612c13.049 0 23.629 10.578 23.629 23.629s-10.578 23.629-23.629 23.629v0zM589.301 475.847c0-13.049 10.578-23.629 23.629-23.629v0h157.088c13.049 0 23.629 10.578 23.629 23.629s-10.578 23.629-23.629 23.629v0h-157.088c-13.049 0-23.629-10.578-23.629-23.629v0zM770.018 619.51c13.049 0 23.629 10.578 23.629 23.629s-10.578 23.629-23.629 23.629v0h-78.545c-13.049 0-23.629-10.578-23.629-23.629s10.578-23.629 23.629-23.629v0h78.545z" />
<glyph unicode="&#xe923;" glyph-name="scan" d="M709.055 813.014h144.524c14.138 0 25.6-11.462 25.6-25.6v0-144.5c0-14.883 12.065-26.947 26.947-26.947s26.947 12.065 26.947 26.947v0 144.496c-0.034 43.886-35.596 79.455-79.477 79.5h-144.528c-0.002 0-0.005 0-0.007 0-14.883 0-26.947-12.065-26.947-26.947 0-14.88 12.061-26.944 26.94-26.947v0zM117.895 615.955c0.004 0 0.009 0 0.014 0 14.869 0 26.923 12.050 26.931 26.916v144.539c0.013 14.141 11.48 25.6 25.623 25.6 0.003 0 0.007 0 0.010 0h144.472c14.884 0 26.95 12.066 26.95 26.95s-12.066 26.95-26.95 26.95v0h-144.468c-43.899-0.037-79.477-35.607-79.528-79.5v-144.505c0-0.006 0-0.012 0-0.019 0-14.867 12.047-26.921 26.912-26.931h0.034zM314.95 78.699h-144.472c-0.010 0-0.021 0-0.033 0-14.127 0-25.581 11.443-25.6 25.566v144.521c0 0.052 0.001 0.113 0.001 0.175 0 14.882-12.064 26.946-26.946 26.946-14.82 0-26.846-11.965-26.945-26.762v-144.886c0.069-43.883 35.64-79.435 79.524-79.472h144.476c14.887 0.001 26.954 12.070 26.954 26.957s-12.069 26.957-26.957 26.957c-0.001 0-0.002 0-0.002 0v0zM906.105 275.749c-0.004 0-0.009 0-0.014 0-14.869 0-26.923-12.050-26.931-26.916v-144.557c-0.013-14.128-11.47-25.577-25.6-25.577h-144.524c-0.105 0.001-0.23 0.002-0.354 0.002-14.884 0-26.95-12.066-26.95-26.95s12.066-26.95 26.95-26.95c0.125 0 0.249 0.001 0.373 0.003h144.505c43.874 0.045 79.429 35.598 79.476 79.467v144.515c0 0.004 0 0.009 0 0.014 0 14.869-12.050 26.923-26.916 26.931h-0.001zM997.055 472.804h-970.105c-14.883 0-26.947-12.065-26.947-26.947s12.065-26.947 26.947-26.947v0h970.105c14.883 0 26.947 12.065 26.947 26.947s-12.065 26.947-26.947 26.947v0z" />
<glyph unicode="&#xe924;" glyph-name="settings" d="M567.999 914.489c0.003 0 0.007 0 0.010 0 15.82 0 28.649-12.803 28.692-28.612v-103.618l90.557-35.185 74.476 70.35c5.211 5.185 12.396 8.39 20.329 8.39 7.865 0 14.995-3.15 20.195-8.258l-0.004 0.004 79.306-79.437c5.098-5.172 8.247-12.277 8.247-20.118 0-7.949-3.236-15.143-8.463-20.335l-73.184-73.159 39.226-89.020 102.582-2.903c15.768-0.040 28.535-12.832 28.535-28.606 0-0.004 0-0.007 0-0.011v0.001-112.043c-0.009-15.763-12.775-28.542-28.533-28.571h-103.667l-35.236-90.628 70.476-74.714c5.097-5.025 8.255-12.006 8.255-19.724 0-0.127-0.001-0.254-0.003-0.381v0.019c0.001-0.075 0.001-0.163 0.001-0.252 0-7.877-3.251-14.995-8.485-20.085l-0.006-0.006-78.825-78.992c-5.171-4.83-12.136-7.795-19.795-7.795-0.23 0-0.46 0.003-0.689 0.008l0.034-0.001c-0.222-0.006-0.483-0.010-0.744-0.010-7.478 0-14.284 2.878-19.37 7.587l0.019-0.017-73.404 73.318-88.969-39.099-0.814-28.793-2.063-73.693c-0.043-15.814-12.873-28.616-28.692-28.616-0.004 0-0.007 0-0.011 0h-111.997c-15.798 0.017-28.601 12.818-28.621 28.614v103.595l-90.547 35.119-74.638-70.365c-5.363-4.719-12.443-7.599-20.197-7.599s-14.834 2.88-20.231 7.628l0.034-0.029-79.392 79.422c-5.099 5.144-8.249 12.226-8.249 20.044 0 7.973 3.277 15.181 8.558 20.35l0.005 0.005 72.985 73.061-38.952 89.278-102.663 2.756c-15.784 0.009-28.58 12.79-28.611 28.568v112.046c0.017 15.796 12.816 28.596 28.609 28.616h103.666l35.084 90.491-70.446 74.815c-5.101 5.146-8.253 12.23-8.253 20.051 0 7.976 3.278 15.187 8.561 20.358l0.005 0.005 79.088 79.199c5.361 4.699 12.43 7.566 20.168 7.566 7.782 0 14.887-2.899 20.294-7.675l-0.033 0.029 73.167-73.227 88.934 39.155 0.844 28.738 2.144 73.758c0.020 15.798 12.823 28.599 28.62 28.616h111.999zM511.985 211.256c0.026 0 0.056 0 0.086 0 130.75 0 236.744 105.994 236.744 236.744s-105.994 236.744-236.744 236.744c-130.75 0-236.744-105.994-236.744-236.744v0c0.152-130.658 106.006-236.542 236.638-236.744h0.020zM567.984 960h-111.998c-40.919-0.055-74.075-33.209-74.133-74.122v-0.005l-2.124-72.423-34.128-15.019-51.149 51.19c-13.616 12.993-32.099 20.989-52.45 20.989-20.328 0-38.792-7.978-52.433-20.973l0.031 0.029-79.063-79.169c-13.51-13.41-21.873-31.989-21.873-52.522 0-20.447 8.293-38.957 21.7-52.35l0.001-0.001 49.703-52.808-13.446-34.679h-72.514c-40.915-0.057-74.068-33.212-74.122-74.122v-112.048c0.066-40.902 33.217-74.039 74.118-74.082h0.004l72.514-1.957 14.983-34.341-51.074-51.124c-13.511-13.41-21.875-31.989-21.875-52.522 0-20.448 8.294-38.958 21.702-52.35l79.236-79.281c13.605-12.961 32.063-20.935 52.383-20.935s38.778 7.974 52.414 20.964l-0.031-0.029 52.768 49.723 34.72-13.466v-72.428c0.057-40.918 33.214-74.073 74.127-74.127h112.003c40.95 0.017 74.147 33.184 74.213 74.121v0.006l2.023 72.408 34.128 14.998 51.402-51.342c13.597-12.924 32.029-20.874 52.317-20.874 20.353 0 38.837 8.001 52.479 21.028l-0.029-0.028 78.977 79.149c13.458 13.418 21.785 31.976 21.785 52.479 0 20.46-8.292 38.984-21.699 52.394v0l-49.703 52.717 13.537 34.811h72.509c40.887 0.049 74.018 33.192 74.047 74.079v112.046c-0.017 40.904-33.149 74.064-74.041 74.127h-0.006l-72.509 2.068-15.064 34.189 51.149 51.129c13.461 13.429 21.789 31.998 21.789 52.512 0 20.429-8.259 38.928-21.619 52.343l0.002-0.002-79.23 79.361c-13.346 13.344-31.783 21.598-52.147 21.598-0.070 0-0.141 0-0.211 0h-0.060c-0.058 0-0.128 0-0.197 0-20.401 0-38.868-8.278-52.226-21.658l-0.001-0.001-52.682-49.749-34.725 13.492v72.449c-0.066 40.943-33.264 74.11-74.212 74.127h-0.002zM511.985 256.767c-105.615 0-191.233 85.618-191.233 191.233s85.618 191.233 191.233 191.233c105.615 0 191.233-85.618 191.233-191.233v0c-0.115-105.569-85.664-191.118-191.222-191.233h-0.011z" />
<glyph unicode="&#xe925;" glyph-name="token-swap" d="M246.164 883.2l-231.209-253.614c-9.275-10.147-14.956-23.715-14.956-38.61 0-31.654 25.66-57.314 57.314-57.314 16.759 0 31.838 7.193 42.318 18.66l0.040 0.044 89.196 97.864v-537.6c0-31.645 25.653-57.298 57.298-57.298s57.298 25.653 57.298 57.298v0 537.6l89.196-97.864c10.52-11.511 25.599-18.704 42.358-18.704 31.654 0 57.314 25.66 57.314 57.314 0 14.895-5.682 28.462-14.996 38.654l0.040-0.044zM1005.322 362.179c-10.152 9.261-23.717 14.933-38.606 14.933-16.756 0-31.834-7.183-42.322-18.638l-0.039-0.043-89.196-97.879v537.6c0 31.645-25.653 57.298-57.298 57.298s-57.298-25.653-57.298-57.298v0-537.6l-89.196 97.879c-10.52 11.511-25.599 18.704-42.358 18.704-31.654 0-57.314-25.66-57.314-57.314 0-14.895 5.682-28.462 14.996-38.654l-0.040 0.044 231.209-253.645 231.209 253.645c9.267 10.15 14.944 23.716 14.944 38.608 0 16.757-7.188 31.836-18.648 42.32l-0.044 0.039z" />
<glyph unicode="&#xe926;" glyph-name="paste" horiz-adv-x="664" d="M561.111 849.575h-77.98v33.713h-51.216c-11.021 40.174-47.211 69.203-90.182 69.203-3.357 0-6.672-0.177-9.936-0.523l0.407 0.034c-2.858 0.31-6.171 0.487-9.527 0.487-42.971 0-79.163-29.029-90.032-68.547l-0.154-0.656h-51.216v-33.713h-77.647v-0.161c-0.256 0.002-0.558 0.004-0.86 0.004-53.583 0-97.079-43.189-97.576-96.655v-711.736c0.311-53.653 43.877-97.028 97.574-97.028 0.187 0 0.373 0.001 0.559 0.002h457.793c0.159-0.001 0.347-0.001 0.536-0.001 53.695 0 97.261 43.375 97.568 96.998v711.552c-0.308 53.653-43.873 97.028-97.569 97.028-0.19 0-0.38-0.001-0.57-0.002h0.030zM305.243 876.539c0 14.89 12.070 26.961 26.959 26.964v0c14.892 0 26.964-12.072 26.964-26.964v0c0-14.892-12.072-26.964-26.964-26.964v0c-14.892 0-26.964 12.072-26.964 26.964v0zM50.55 41.022v711.689c0.529 28.468 23.731 51.344 52.277 51.344 0.282 0 0.562-0.002 0.842-0.007l-0.042 0.001 45.36 0.161h32.287v-21.546h301.863v21.551h77.98c0.142 0.001 0.309 0.002 0.477 0.002 28.656 0 51.926-23.060 52.267-51.636v-493.906h-167.103c-55.565-0.060-100.594-45.089-100.655-100.649v-168.671h-242.809c-0.144-0.001-0.313-0.002-0.482-0.002-28.656 0-51.926 23.060-52.267 51.636v0.032zM556.57 208.275l-160.062-160.626v110.377c0.032 27.742 22.512 50.222 50.251 50.255h109.811zM561.106-10.644h-151.529l204.273 204.994v-153.328c-0.341-28.608-23.61-51.667-52.267-51.667-0.166 0-0.332 0.001-0.497 0.002h0.026zM195.094 167.743h-79.29c-13.917 0-25.2-11.283-25.2-25.2v0c0-13.917 11.283-25.2 25.2-25.2v0h79.29c13.917 0 25.2 11.283 25.2 25.2v0c0 13.917-11.283 25.2-25.2 25.2v0zM115.804 625.823h432.783c13.917 0 25.2 11.283 25.2 25.2v0c0 13.917-11.283 25.2-25.2 25.2v0h-432.783c-13.917 0-25.2-11.283-25.2-25.2v0c0-13.917 11.283-25.2 25.2-25.2v0zM115.804 456.342h432.783c13.917 0 25.2 11.283 25.2 25.2v0c0 13.917-11.283 25.2-25.2 25.2v0h-432.783c-13.917 0-25.2-11.283-25.2-25.2v0c0-13.917 11.283-25.2 25.2-25.2v0zM274.389 337.23h-158.585c-13.917 0-25.2-11.283-25.2-25.2v0c0-13.917 11.283-25.2 25.2-25.2v0h158.585c13.917 0 25.2 11.283 25.2 25.2v0c0 13.917-11.283 25.2-25.2 25.2v0z" />
<glyph unicode="&#xe927;" glyph-name="security" horiz-adv-x="829" d="M414.697 677.972c-0.431 0.004-0.94 0.006-1.45 0.006-89.454 0-162.095-71.983-163.159-161.184l-0.001-0.1c0.458-54.397 27.895-102.29 69.568-131.005l0.54-0.352v-142.363c0-13.472 10.922-24.394 24.394-24.394v0h140.216c13.472 0 24.394 10.922 24.394 24.394v0 142.363c42.213 29.066 69.65 76.959 70.108 131.286v0.071c-1.065 89.302-73.707 161.285-163.16 161.285-0.51 0-1.019-0.002-1.528-0.007l0.078 0.001zM472.755 420.025c-7.421-4.277-12.337-12.166-12.338-21.203v0-131.449h-91.429v131.444c-0.001 9.038-4.917 16.927-12.221 21.14l-0.118 0.063c-34.5 19.080-57.529 55.157-57.77 96.635v0.033c1.872 62.531 53.011 112.509 115.823 112.509s113.95-49.978 115.818-112.337l0.004-0.172c-0.243-41.51-23.274-77.586-57.206-96.375l-0.569-0.289zM823.677 799.893c-0.187 13.329-11.036 24.062-24.392 24.062-0.001 0-0.002 0-0.002 0v0c-160.561 0-307.33 51.027-365.173 126.971-4.673 5.565-11.634 9.078-19.415 9.078s-14.742-3.513-19.383-9.039l-0.032-0.039c-57.838-75.943-204.607-126.971-365.173-126.971-0.001 0-0.001 0-0.002 0-13.356 0-24.205-10.733-24.392-24.045v-0.018l-5.718-407.121c0-0.028 0-0.062 0-0.095 0-106.626 45.169-202.702 117.417-270.137l0.216-0.199c81.897-74.641 176.991-136.66 281.058-181.917l6.62-2.565c2.774-1.175 6.001-1.859 9.387-1.859s6.612 0.683 9.549 1.919l-0.162-0.061c110.844 47.904 206.066 110.052 288.864 185.587l-0.806-0.725c72.236 67.576 117.252 163.477 117.252 269.892 0 0.172 0 0.345 0 0.517v-0.027zM679.362 158.819c-75.586-68.876-162.973-126.569-258.454-169.454l-6.211-2.494c-101.536 45.296-188.795 102.862-265.077 172.278l0.793-0.711c-62.61 58.588-101.625 141.723-101.625 233.971 0 0.004 0 0.008 0 0.012v0l5.367 383.063c152.77 4.479 288.629 51.408 360.543 123.687 71.894-72.274 207.754-119.208 360.543-123.687l5.367-382.727c0-0.115 0-0.252 0-0.388 0-92.038-38.862-175-101.073-233.37l-0.172-0.16z" />
<glyph unicode="&#xe928;" glyph-name="pw" horiz-adv-x="862" d="M809.747 369.702v86.824c-0.211 68.399-51.465 124.763-117.658 133.010l-0.657 0.067v109.024c0.002 0.352 0.003 0.768 0.003 1.184 0 143.748-116.531 260.279-260.279 260.279s-260.279-116.531-260.279-260.279c0-0.416 0.001-0.833 0.003-1.248v0.064-109.024c-66.849-8.316-118.101-64.679-118.315-133.055v-86.846c-32.086-24.604-52.567-62.953-52.567-106.086s20.482-81.482 52.25-105.853l0.317-0.234v-86.771c0.080-74.381 60.356-134.657 134.729-134.737h487.717c74.381 0.080 134.657 60.356 134.737 134.729v86.779c32.086 24.604 52.567 62.953 52.567 106.086s-20.482 81.482-52.25 105.853l-0.317 0.234zM251.721 698.632c-0.002 0.292-0.003 0.638-0.003 0.983 0 99.1 80.337 179.437 179.437 179.437s179.437-80.337 179.437-179.437c0-0.346-0.001-0.691-0.003-1.037v0.053-107.369h-358.869v107.369zM755.852 70.758c-0.049-44.628-36.214-80.793-80.837-80.842h-487.714c-44.628 0.049-80.793 36.214-80.842 80.837v61.229c8.487-1.933 18.243-3.056 28.256-3.088h592.865c10.036 0.032 19.791 1.155 29.178 3.257l-0.899-0.169v-61.224zM114.639 286.968l11.442 19.65 44.733-31.755-5.201 54.913h22.884l-5.028-54.913 44.56 31.755 11.269-19.65-49.411-23.331 49.411-23.509-11.269-19.472-44.56 31.755 5.028-54.913h-22.884l5.201 54.913-44.733-31.755-11.442 19.472 49.583 23.509zM284.095 286.968l11.442 19.65 44.733-31.755-5.201 54.913h22.884l-5.028-54.913 44.555 31.755 11.269-19.65-49.411-23.331 49.411-23.509-11.269-19.472-44.555 31.755 5.028-54.913h-22.884l5.201 54.913-44.733-31.755-11.442 19.472 49.583 23.509zM453.546 286.968l11.442 19.65 44.733-31.755-5.201 54.913h22.884l-5.028-54.913 44.56 31.755 11.269-19.65-49.416-23.331 49.416-23.53-11.269-19.472-44.56 31.755 5.028-54.913h-22.884l5.201 54.913-44.733-31.755-11.442 19.472 49.583 23.509zM623.018 286.968l11.442 19.65 44.733-31.755-5.201 54.913h22.884l-5.028-54.913 44.56 31.755 11.269-19.65-49.416-23.331 49.416-23.509-11.269-19.472-44.56 31.755 5.028-54.913h-22.884l5.201 54.913-44.733-31.755-11.469 19.451 49.583 23.509zM755.852 395.296c-8.487 1.933-18.243 3.056-28.256 3.088h-592.865c-10.036-0.032-19.791-1.155-29.178-3.257l0.899 0.169v61.262c0.049 44.628 36.214 80.793 80.837 80.842h487.714c44.628-0.049 80.793-36.214 80.842-80.837v-61.267z" />
<glyph unicode="&#xe929;" glyph-name="fa" horiz-adv-x="757" d="M638.82 589.608v109.024c0 143.739-116.524 260.263-260.263 260.263s-260.263-116.524-260.263-260.263v-109.024c-66.85-8.314-118.104-64.678-118.315-133.055v-385.811c0.080-74.381 60.356-134.657 134.729-134.737h487.69c74.381 0.080 134.657 60.356 134.737 134.729v385.797c-0.211 68.399-51.465 124.763-117.658 133.010l-0.657 0.067zM378.557 879.163c99.186-0.441 179.421-80.948 179.421-180.195 0-0.124 0-0.248 0-0.371v0.019-107.369h-358.842v107.369c0 0.103 0 0.225 0 0.347 0 99.255 80.248 179.767 179.402 180.195h0.041zM703.24 70.742c-0.049-44.628-36.214-80.793-80.837-80.842h-487.687c-44.628 0.049-80.793 36.214-80.842 80.837v385.794c0.049 44.628 36.214 80.793 80.837 80.842h487.687c44.628-0.049 80.793-36.214 80.842-80.837v-385.794zM522.138 403.747c-0.339 0.004-0.739 0.007-1.139 0.007-51.829 0-93.922-41.687-94.577-93.361l-0.001-0.062c0.248-34.485 19.297-64.465 47.397-80.224l0.467-0.241v-106.372h95.706v106.372c28.567 16 47.616 45.98 47.864 80.43v0.035c-0.656 51.736-42.749 93.423-94.578 93.423-0.4 0-0.8-0.002-1.2-0.007l0.061 0.001zM254.437 403.747c-0.337 0.004-0.735 0.007-1.134 0.007-51.829 0-93.922-41.687-94.577-93.361l-0.001-0.062c0.249-34.485 19.298-64.465 47.397-80.224l0.467-0.241v-106.372h95.706v106.372c28.567 16 47.616 45.98 47.864 80.43v0.035c-0.656 51.736-42.749 93.423-94.578 93.423-0.402 0-0.804-0.003-1.205-0.008l0.061 0.001z" />
<glyph unicode="&#xe92a;" glyph-name="deposit" d="M511.988 960c-282.77 0-512-229.23-512-512s229.23-512 512-512c282.77 0 512 229.23 512 512v0c0 282.77-229.23 512-512 512v0zM416.214 519.819v191.524h191.548v-191.548h143.613l-239.381-239.381-239.351 239.381h143.613zM751.339 184.687h-478.75v31.925h478.75v-31.925z" />
<glyph unicode="&#xe92b;" glyph-name="withdraw" d="M512 960c-282.77 0-512-229.23-512-512s229.23-512 512-512c282.77 0 512 229.23 512 512v0c0 282.77-229.23 512-512 512v0zM607.774 471.95v-191.512h-191.506v191.512h-143.613l239.387 239.393 239.351-239.381h-143.613zM751.393 184.687h-478.75v31.925h478.75v-31.925z" />
<glyph unicode="&#xe92c;" glyph-name="menu-dots1" horiz-adv-x="1072" d="M185.682 448c0-44.647-36.194-80.841-80.841-80.841s-80.841 36.194-80.841 80.841c0 44.647 36.194 80.841 80.841 80.841s80.841-36.194 80.841-80.841zM1047.999 448c0-44.647-36.194-80.841-80.841-80.841s-80.841 36.194-80.841 80.841c0 44.647 36.194 80.841 80.841 80.841s80.841-36.194 80.841-80.841zM616.878 448c0-44.647-36.194-80.841-80.841-80.841s-80.841 36.194-80.841 80.841c0 44.647 36.194 80.841 80.841 80.841s80.841-36.194 80.841-80.841z" />
<glyph unicode="&#xe92d;" glyph-name="news" horiz-adv-x="983" d="M884.29 840.755c-30.798 30.98-68.338 54.422-109.691 68.495-41.357 14.073-85.406 18.395-128.705 12.632-43.303-5.764-84.685-21.457-120.918-45.858-36.237-24.401-66.339-56.846-87.962-94.804-1.274-2.213-2.097-4.654-2.425-7.186-0.332-2.531-0.16-5.104 0.504-7.569 0.668-2.465 1.81-4.774 3.367-6.796s3.498-3.718 5.71-4.991c2.212-1.273 4.653-2.099 7.184-2.428s5.104-0.156 7.569 0.508c2.462 0.665 4.776 1.808 6.795 3.365 2.023 1.557 3.719 3.498 4.993 5.711 18.686 32.811 44.696 60.867 75.997 81.984s67.056 34.723 104.477 39.762c37.425 5.039 75.502 1.373 111.276-10.711s68.276-32.263 94.974-58.963c26.702-26.7 46.879-59.201 58.962-94.974 12.087-35.773 15.753-73.853 10.711-111.275-5.038-37.422-18.645-73.177-39.76-104.478s-49.172-57.311-81.986-75.997c-2.228-1.266-4.186-2.957-5.759-4.981-1.569-2.023-2.728-4.338-3.404-6.812s-0.852-5.054-0.524-7.594c0.324-2.544 1.151-4.997 2.429-7.217 1.278-2.224 2.982-4.17 5.018-5.73 2.032-1.561 4.35-2.703 6.828-3.363s5.059-0.823 7.598-0.483c2.54 0.344 4.989 1.184 7.201 2.478 37.958 21.623 70.398 51.724 94.798 87.962 24.4 36.233 40.092 77.615 45.855 120.916 5.767 43.301 1.442 87.348-12.628 128.702s-37.507 78.897-68.485 109.697zM801.948 785.912l-181.24-181.242c-3.494-3.675-5.415-8.57-5.353-13.642s2.105-9.919 5.693-13.505c3.584-3.586 8.434-5.629 13.505-5.692s9.966 1.858 13.64 5.353l181.244 181.242c1.876 1.787 3.379 3.934 4.415 6.312s1.589 4.937 1.622 7.531c0.033 2.594-0.455 5.168-1.434 7.571-0.975 2.403-2.425 4.585-4.26 6.42-1.831 1.834-4.014 3.283-6.418 4.26s-4.977 1.464-7.569 1.432c-2.593-0.032-5.153-0.584-7.533-1.621-2.376-1.037-4.522-2.539-6.312-4.418zM866.169 694.194c-1.806 1.806-3.949 3.24-6.312 4.217-2.359 0.977-4.887 1.48-7.442 1.48-2.552 0-5.083-0.503-7.442-1.48s-4.502-2.411-6.308-4.217l-153.739-153.739c-1.847-1.798-3.318-3.94-4.329-6.312s-1.54-4.919-1.561-7.496c-0.016-2.576 0.479-5.132 1.458-7.516 0.975-2.384 2.421-4.551 4.243-6.373 1.823-1.819 3.99-3.26 6.373-4.235 2.384-0.979 4.94-1.47 7.516-1.45 2.576 0.016 5.124 0.549 7.496 1.561 2.367 1.012 4.514 2.486 6.308 4.334l153.739 153.742c3.641 3.647 5.685 8.589 5.685 13.743s-2.044 10.096-5.685 13.743zM825.025 552.129l-75.887-75.891c-1.88-1.79-3.383-3.936-4.42-6.312-1.036-2.38-1.585-4.94-1.618-7.533s0.455-5.165 1.43-7.569c0.979-2.404 2.429-4.588 4.26-6.418 1.835-1.835 4.018-3.285 6.423-4.26 2.4-0.979 4.973-1.466 7.569-1.434 2.593 0.029 5.153 0.582 7.533 1.618 2.376 1.040 4.522 2.544 6.312 4.42l75.899 75.895c1.864 1.79 3.355 3.936 4.379 6.312s1.565 4.932 1.593 7.516c0.025 2.585-0.467 5.153-1.446 7.545-0.979 2.396-2.425 4.57-4.252 6.399-1.831 1.828-4.006 3.274-6.402 4.25-2.392 0.977-4.96 1.467-7.545 1.44-2.589-0.027-5.14-0.568-7.516-1.595s-4.522-2.517-6.312-4.383zM396.298 230.461l-194.889-194.888c-8.031-8.028-17.566-14.397-28.058-18.743s-21.738-6.586-33.095-6.586c-11.357 0.004-22.603 2.241-33.094 6.586s-20.025 10.719-28.056 18.747c-8.030 8.032-14.4 17.568-18.746 28.058-4.345 10.494-6.583 21.737-6.582 33.096s2.238 22.602 6.584 33.096c4.347 10.49 10.717 20.025 18.747 28.054l194.878 194.888c1.879 1.79 3.381 3.932 4.418 6.312 1.038 2.376 1.589 4.936 1.621 7.533 0.032 2.593-0.454 5.165-1.432 7.569s-2.426 4.588-4.26 6.418c-1.834 1.835-4.017 3.285-6.42 4.26-2.402 0.979-4.977 1.466-7.571 1.434s-5.153-0.586-7.531-1.622c-2.377-1.036-4.524-2.54-6.312-4.415l-194.908-194.892c-23.389-23.536-36.492-55.39-36.438-88.572s13.261-64.991 36.726-88.453c23.465-23.462 55.274-36.667 88.456-36.717s65.032 13.058 88.567 36.45l194.876 194.888c1.839 1.794 3.305 3.94 4.309 6.308 1.008 2.367 1.532 4.907 1.548 7.479 0.012 2.572-0.483 5.12-1.458 7.5-0.979 2.38-2.417 4.542-4.231 6.361-1.819 1.819-3.981 3.256-6.357 4.235-2.38 0.979-4.927 1.475-7.5 1.462-2.57-0.016-5.114-0.537-7.481-1.54s-4.513-2.466-6.312-4.305zM416.67 728.927c-6.136 6.119-14.442 9.554-23.106 9.554s-16.974-3.435-23.107-9.554l-173.314-173.314c-6.126-6.13-9.567-14.445-9.567-23.112s3.441-16.978 9.567-23.11l355.78-355.774c3.031-3.035 6.636-5.444 10.6-7.086s8.212-2.486 12.505-2.486c4.289 0 8.54 0.844 12.505 2.486s7.565 4.051 10.6 7.086l173.322 173.314c6.128 6.128 9.568 14.442 9.568 23.106 0 8.667-3.441 16.978-9.568 23.11l-355.787 355.781zM576.029 185.487l-347.005 347.013 164.542 164.542 347.012-347.011-164.549-164.545zM371.040 582.134l21.87 14.279-8.332 8.333-21.858-14.279-13.407 13.401-6.989-6.998 11.919-11.919-16.224-10.614-12.823 12.809-6.95-6.95 11.388-11.381-21.553-14.064 8.32-8.335 21.566 14.073 10.828-10.841-21.552-14.066 8.385-8.376 21.552 14.062 12.318-12.317 6.95 6.951-10.884 10.887 16.224 10.613 11.826-11.829 7.003 6.989-10.341 10.341 21.857 14.279-8.319 8.325-21.871-14.279-10.901 10.904zM357.234 555.12l-10.886 10.886 16.291 10.569 10.828-10.841-16.233-10.614zM374.626 488.19l44.493 44.466-16.654-72.335 11.267-11.235 63.242 63.242-11.158 11.158-44.577-44.548 16.63 72.496-11.239 11.239-63.244-63.243 11.239-11.239zM468.021 394.797l9.036 9.036-30.237 30.233 19.132 19.104 25.854-25.85 8.843 8.868-25.854 25.854 17.175 17.146 29.958-29.962 9.089 9.060-41.226 41.23-63.242-63.246 41.472-41.472zM490.856 371.995l7.102-7.131 57.77 33.718-33.96-57.532 10.912-10.912 77.75 48.767-11.215 11.186-56.848-37.745 35.57 59.023-2.56 2.585-6.857 6.861-59.052-35.324 37.499 56.877-11.182 11.158-48.742-77.75 3.813-3.781zM594.141 338.272c1.098-8.106 3.748-15.921 7.811-23.020 2.073-3.666 3.801-7.512 5.157-11.497 0.831-2.306 1.053-4.788 0.651-7.209-0.561-2.085-1.7-3.973-3.281-5.444-1.135-1.212-2.544-2.134-4.112-2.687-1.565-0.553-3.24-0.721-4.887-0.487-4.125 0.815-7.864 2.966-10.641 6.128-3.678 3.33-6.177 7.766-7.123 12.64-0.262 2.261 0.029 4.551 0.852 6.672 0.827 2.122 2.159 4.006 3.879 5.493l-11.244 11.248c-4.067-3.85-6.697-8.974-7.451-14.529-0.668-5.485 0.164-11.051 2.404-16.101 2.318-5.353 5.636-10.22 9.781-14.328 3.99-4.162 8.757-7.496 14.033-9.818 4.358-1.942 9.179-2.589 13.894-1.868 4.575 0.811 8.77 3.060 11.977 6.423 3.133 2.998 5.378 6.803 6.484 10.998 0.971 4.403 0.844 8.978-0.373 13.316-1.622 5.816-3.949 11.411-6.935 16.658-2.707 4.473-4.657 9.363-5.767 14.471-0.36 1.581-0.315 3.224 0.123 4.788 0.438 1.561 1.257 2.99 2.388 4.153 1.147 1.217 2.556 2.15 4.125 2.732 1.569 0.578 3.248 0.791 4.911 0.614 4.153-0.672 7.934-2.781 10.695-5.956 3.42-2.953 5.558-7.119 5.968-11.62 0.020-1.978-0.377-3.94-1.167-5.755s-1.954-3.441-3.42-4.776l11.215-11.207c3.478 3.416 5.894 7.762 6.963 12.517 1.081 4.981 0.745 10.166-0.967 14.967-1.991 5.571-5.251 10.6-9.527 14.692-3.949 4.092-8.708 7.324-13.963 9.49-4.485 1.876-9.4 2.478-14.205 1.741-4.542-0.754-8.72-2.937-11.936-6.234-2.306-2.187-4.076-4.878-5.173-7.864-1.094-2.986-1.483-6.181-1.139-9.343z" />
<glyph unicode="&#xe92e;" glyph-name="home" horiz-adv-x="1177" d="M988.224-64h-286.428v202.586c-1.307 61.58-51.535 110.999-113.305 110.999s-111.999-49.419-113.303-110.877l-0.002-0.122v-202.586h-286.433v435.554h-188.742l588.515 588.467 588.515-588.467h-188.806v-435.554zM748.254-17.617h193.539v435.554h123.143l-476.41 476.458-476.41-476.458h123.105v-435.554h193.566v156.203c0 88.221 71.517 159.739 159.739 159.739s159.739-71.517 159.739-159.739v0-156.203z" />
<glyph unicode="&#xe92f;" glyph-name="quick-trade" d="M511.772-64c-0.279-0.001-0.609-0.001-0.94-0.001-95.621 0-185.062 26.456-261.405 72.446l2.284-1.276c-6.355 3.603-10.574 10.322-10.574 18.026 0 11.406 9.246 20.652 20.652 20.652 3.909 0 7.565-1.086 10.681-2.973l-0.092 0.052 0.379-0.222c68.497-41.167 151.161-65.516 239.513-65.516 259.883 0 470.56 210.677 470.56 470.56 0 116.438-42.291 222.998-112.351 305.158l0.547-0.657c-1.856 2.024-4.512 3.289-7.464 3.289-1.067 0-2.095-0.165-3.060-0.471l0.072 0.020-482.059-136.705c-2.536-0.748-5.45-1.179-8.465-1.179-17.109 0-30.978 13.869-30.978 30.978 0 0.002 0 0.004 0 0.006v0 94.668l-166.672-166.672 166.672-166.672v73.495c0 0.001 0 0.002 0 0.003 0 17.103 13.865 30.968 30.968 30.968 3.409 0 6.689-0.551 9.756-1.568l-0.219 0.063 264.248-85.419v84.231c0 0.001 0 0.003 0 0.005 0 17.106 13.867 30.973 30.973 30.973 8.553 0 16.296-3.467 21.901-9.072l191.607-191.607c5.603-5.604 9.069-13.345 9.069-21.896s-3.466-16.292-9.069-21.896l-191.587-191.587c-5.605-5.605-13.348-9.072-21.901-9.072-17.106 0-30.973 13.867-30.973 30.973v0 105.935l-468.921-132.994c-4.266-1.277-9.169-2.012-14.243-2.012-15.54 0-29.471 6.894-38.9 17.79l-0.055 0.065c-75.602 88.654-121.597 204.559-121.597 331.206 0 282.697 229.171 511.869 511.869 511.869 96.107 0 186.028-26.487 262.861-72.559l-2.323 1.291c6.355-3.603 10.574-10.322 10.574-18.026 0-11.406-9.246-20.652-20.652-20.652-3.909 0-7.565 1.086-10.681 2.973l0.092-0.052-0.379 0.222c-68.497 41.167-151.161 65.516-239.513 65.516-259.883 0-470.56-210.677-470.56-470.56 0-116.438 42.291-222.998 112.351-305.158l-0.547 0.657c1.868-2.017 4.53-3.275 7.486-3.275 1.054 0 2.071 0.16 3.028 0.457l-0.072-0.019 482.059 136.705c2.538 0.749 5.454 1.181 8.47 1.181 17.106 0 30.973-13.867 30.973-30.973 0-0.003 0-0.005 0-0.008v0-94.663l166.672 166.672-166.672 166.672v-73.506c0 0 0-0.001 0-0.002 0-17.106-13.867-30.973-30.973-30.973-3.401 0-6.674 0.548-9.736 1.561l0.219-0.063-264.258 85.419v-84.231c0-17.106-13.867-30.973-30.973-30.973-8.553 0-16.296 3.467-21.901 9.072l-191.587 191.592c-5.595 5.609-9.054 13.35-9.054 21.898s3.46 16.29 9.055 21.899l191.606 191.606c5.605 5.605 13.348 9.072 21.901 9.072 17.106 0 30.973-13.867 30.973-30.973v0-105.92l468.921 132.994c4.266 1.276 9.168 2.011 14.241 2.011 15.541 0 29.472-6.893 38.902-17.789l0.055-0.065c75.679-88.3 121.744-203.921 121.744-330.301 0-22.037-1.401-43.747-4.118-65.046l0.263 2.526c-29.925-232.534-211.447-414.913-440.999-445.868l-2.648-0.292c-19.509-2.54-42.088-3.999-65.004-4.015h-0.021z" />
<glyph unicode="&#xe930;" glyph-name="filter" horiz-adv-x="906" d="M849.196 903.387v-96.842c0-0.041 0-0.091 0-0.14 0-15.544-6.302-29.616-16.491-39.801v0l-317.571-319.009v-330.405l-124.458-124.469v454.875l-16.463 16.565-301.108 302.444c-10.189 10.184-16.492 24.257-16.492 39.801 0 0.049 0 0.098 0 0.147v-0.008 96.842h792.583zM905.809 960h-905.809v-153.455c0-31.176 12.601-59.41 32.987-79.885l301.075-302.44v-431.499c0-0.044 0-0.097 0-0.149 0-31.245 25.329-56.573 56.573-56.573 0.157 0 0.314 0.001 0.471 0.002h-0.024c15.527 0.003 29.561 6.393 39.619 16.685l0.010 0.011 124.464 124.464c10.245 10.245 16.582 24.398 16.582 40.031v0 307.030l301.080 302.444c20.375 20.471 32.971 48.7 32.971 79.871 0 0.004 0 0.007 0 0.011v-0.001 153.455z" />
<glyph unicode="&#xe931;" glyph-name="transfer" d="M512.057-64c-0.017 0-0.037 0-0.057 0-282.77 0-512 229.23-512 512s229.23 512 512 512c282.77 0 512-229.23 512-512v0c-0.346-282.611-229.337-511.622-511.907-512h-0.036zM512.057 903.111c-0.017 0-0.037 0-0.057 0-251.351 0-455.111-203.76-455.111-455.111s203.76-455.111 455.111-455.111c251.351 0 455.111 203.76 455.111 455.111v0c-0.304 251.208-203.85 454.774-455.022 455.111h-0.033zM870.491 466.239l-146.386 146.017-144.873-147.502 98.822 0.512c0.951-6.607 1.493-14.237 1.493-21.994 0-89.858-72.844-162.702-162.702-162.702-11.197 0-22.131 1.131-32.692 3.285l1.047-0.178-69.211-69.945c29.667-13.326 64.305-21.088 100.756-21.088 138.755 0 251.238 112.483 251.238 251.238 0 7.684-0.345 15.288-1.020 22.797l0.070-0.969zM328.75 628.821c-44.925-45.329-72.684-107.736-72.684-176.627 0-7.715 0.348-15.349 1.030-22.887l-0.071 0.971-103.464-0.535 146.364-146.017 144.873 147.502-98.805-0.512c-0.951 6.607-1.493 14.237-1.493 21.994 0 89.858 72.844 162.702 162.702 162.702 11.197 0 22.131-1.131 32.692-3.285l-1.047 0.178 69.211 69.945c-29.649 13.291-64.26 21.033-100.68 21.033-69.845 0-133.039-28.473-178.609-74.445l-0.018-0.018z" />
<glyph unicode="&#xe932;" glyph-name="notify" horiz-adv-x="875" d="M792.528 252.157v154.893c0 197.476-108.867 343.309-273.106 379.64v91.201c0 45.346-36.76 82.106-82.106 82.106s-82.106-36.76-82.106-82.106v0-91.201c-164.223-36.341-273.16-182.164-273.16-379.64v-154.947c-47.625-13.003-82.055-55.879-82.055-106.797 0-0.127 0-0.254 0.001-0.381v0.020-0.108c0.156-45.735 47.632-80.422 141.053-103.106 57.241-13.301 124.084-22.385 192.527-25.281l2.265-0.076c11.209-46.422 52.389-80.371 101.498-80.371 49.349 0 90.691 34.28 101.512 80.327l0.14 0.706c71.082 3.34 138.019 12.681 202.829 27.591l-7.612-1.474c93.367 22.894 140.579 57.667 140.423 103.316-0.065 50.636-34.568 93.195-81.342 105.517l-0.761 0.17zM409.104 877.875c0 15.581 12.631 28.211 28.211 28.211s28.211-12.631 28.211-28.211v0-83.537c-9.318 0.663-18.621 1.358-28.209 1.358s-18.895-0.695-28.209-1.358v83.537zM437.313-10.127c-17.963 0.238-33.611 9.927-42.224 24.311l-0.126 0.227c11.992-0.232 23.584-0.803 35.824-0.803h7.055c14.368 0.054 27.998 0.722 42.038 1.078-8.721-14.761-24.463-24.562-42.512-24.791h-0.033zM721.365 95.507c-80.311-17.885-172.552-28.132-267.187-28.132-5.818 0-11.628 0.039-17.428 0.116l0.881-0.009c-7.913-0.181-17.238-0.284-26.587-0.284-91.106 0-179.927 9.785-265.468 28.36l8.213-1.496c-73.211 17.785-99.84 40.157-99.894 50.893 0.003 30.744 24.492 55.767 55.028 56.631l0.080 0.002c14.883 0 26.947 12.065 26.947 26.947v0 178.472c0 197.104 123.958 334.789 301.369 334.789s301.315-137.685 301.315-334.789v-178.472c0-14.883 12.065-26.947 26.947-26.947v0c30.471-0.043 55.156-24.754 55.156-55.231 0-0.011 0-0.023 0-0.034v0.002c0.054-9.114-20.69-31.534-99.377-50.796z" />
<glyph unicode="&#xe933;" glyph-name="edit" horiz-adv-x="1056" d="M71.524 255.583l-66.231-319.583 311.657 63.231 564.223 551.974-247.461 241.995zM286.918 55.919l-202.487-41.131 43.419 209.571 505.377 483.314 160.029-156.487zM1030.028 804.495l-138.531 135.531c-14.459 12.416-33.404 19.974-54.114 19.974-24.727 0-46.936-10.775-62.191-27.885l-0.072-0.083-109.109-106.765 247.64-242.271 108.223 105.806c17.35 16.441 28.303 39.482 28.825 65.084l0.002 0.095c0.004 0.265 0.006 0.577 0.006 0.89 0 19.402-7.907 36.958-20.674 49.62l-0.005 0.005zM978.869 732.736l-65.21-63.772-159.734 156.308 64.19 62.813c4.729 6.132 12.078 10.045 20.34 10.045 3.629 0 7.080-0.754 10.208-2.114l-0.165 0.064 138.531-135.531c1.362-1.571 2.192-3.636 2.192-5.895 0-0.25-0.010-0.497-0.030-0.741l0.002 0.032c-0.579-8.456-4.439-15.911-10.302-21.182l-0.029-0.025z" />
<glyph unicode="&#xe934;" glyph-name="details" horiz-adv-x="867" d="M642.729 732.083c0 14.775-11.977 26.752-26.752 26.752v0h-485.245c-14.775 0-26.752-11.977-26.752-26.752s11.977-26.752 26.752-26.752v0h485.245c14.775 0 26.752 11.977 26.752 26.752v0zM228.072 569.43h-97.34c-14.775 0-26.752-11.977-26.752-26.752s11.977-26.752 26.752-26.752v0h97.34c14.775 0 26.752 11.977 26.752 26.752s-11.977 26.752-26.752 26.752v0zM130.732 326.57h88.876c14.775 0 26.752 11.977 26.752 26.752s-11.977 26.752-26.752 26.752v0h-88.876c-14.775 0-26.752-11.977-26.752-26.752s11.977-26.752 26.752-26.752v0zM130.732 137.165h160.892c14.775 0 26.752 11.977 26.752 26.752s-11.977 26.752-26.752 26.752v0h-160.876c-0.002 0-0.005 0-0.008 0-14.775 0-26.752-11.977-26.752-26.752 0-14.772 11.973-26.748 26.744-26.752v0zM631.547 438.436h-80.256v80.256c0 14.775-11.977 26.752-26.752 26.752s-26.752-11.977-26.752-26.752v0-80.256h-80.256c-14.775 0-26.752-11.977-26.752-26.752s11.977-26.752 26.752-26.752v0h80.256v-80.256c0-14.775 11.977-26.752 26.752-26.752s26.752 11.977 26.752 26.752v0 80.256h80.256c14.775 0 26.752 11.977 26.752 26.752s-11.977 26.752-26.752 26.752v0zM854.237 144.581l-135.638 126.013c28.227 38.823 45.156 87.445 45.156 140.021 0 132.364-107.302 239.667-239.667 239.667s-239.667-107.302-239.667-239.667c0-132.364 107.302-239.667 239.667-239.667 51.386 0 98.996 16.172 138.016 43.704l-0.755-0.505 138.207-128.41c7.148-6.656 16.767-10.742 27.341-10.742 22.182 0 40.164 17.982 40.164 40.164 0 11.609-4.925 22.067-12.799 29.4l-0.024 0.022zM392.116 279.267c-33.889 33.888-54.85 80.705-54.85 132.417 0 103.423 83.841 187.265 187.265 187.265s187.265-83.841 187.265-187.265c0-103.422-83.84-187.263-187.261-187.265v0c-51.708 0.026-98.517 20.982-132.419 54.854l0.001-0.001zM720.005 93.484c-14.775 0-26.752-11.977-26.752-26.752v0c-0.055-42.647-34.626-77.201-77.273-77.228h-485.248c-42.632 0.049-77.179 34.596-77.228 77.223v762.541c0.049 42.632 34.596 77.179 77.223 77.228h485.25c42.65-0.027 77.221-34.581 77.276-77.223v-129.64c0-14.775 11.977-26.752 26.752-26.752s26.752 11.977 26.752 26.752v0 129.635c-0.094 72.18-58.596 130.665-130.774 130.732h-485.252c-72.174-0.067-130.665-58.558-130.732-130.726v-762.547c0.067-72.174 58.558-130.665 130.726-130.732h485.252c72.184 0.067 130.686 58.552 130.78 130.723v0.009c0 0.002 0 0.003 0 0.005 0 14.775-11.977 26.752-26.752 26.752v0z" />
<glyph unicode="&#xe935;" glyph-name="private_key" horiz-adv-x="544" d="M272.226 878.271c-49.668-0.873-89.597-41.341-89.597-91.136 0-50.34 40.809-91.149 91.149-91.149 50.339 0 91.148 40.807 91.149 91.146v0c-0.503 50.443-41.512 91.142-92.027 91.142-0.237 0-0.474-0.001-0.711-0.003h0.036zM272.226 729.002c-31.457 0.846-56.635 26.548-56.635 58.131 0 32.116 26.035 58.15 58.15 58.15s58.15-26.035 58.15-58.15c0 0 0-0.001 0-0.001v0c-0.477-32.205-26.696-58.129-58.969-58.129-0.245 0-0.49 0.001-0.734 0.004h0.037zM272.226 960c-1.726 0.040-3.759 0.063-5.798 0.063-147.149 0-266.436-119.287-266.436-266.436 0-117.174 75.639-216.682 180.754-252.36l1.877-0.553v-136.373l-77.341-72.103 69.638-64.926-69.638-64.926 77.341-72.103v-28.549l89.603-65.73 89.603 65.73v438.985c106.983 36.236 182.614 135.739 182.614 252.907 0 147.149-119.287 266.436-266.436 266.436-2.033 0-4.060-0.023-6.082-0.068l0.301 0.005zM340.673 468.624l-11.859-3.47v-446.724l-56.567-41.501-56.567 41.501v26.198l-61.95 57.748 69.638 64.926-69.638 64.926 61.95 57.748v175.189l-11.859 3.47c-99.611 30.417-170.819 121.517-170.819 229.249 0 132.13 107.113 239.243 239.243 239.243s239.243-107.113 239.243-239.243c0-107.732-71.208-198.833-169.124-228.803l-1.695-0.446zM256.052 443.292h25.394v-425.754h-25.394v425.754z" />
<glyph unicode="&#xe936;" glyph-name="json" horiz-adv-x="844" d="M306.541 673.673v40.574c-0.29 2.296-0.456 4.953-0.456 7.649 0 30.039 20.585 55.271 48.418 62.358l0.445 0.096-8.795 23.115c-24.343-4.816-45.419-16.465-61.758-32.843l-0.002-0.002c-12.908-15.105-20.762-34.866-20.762-56.461 0-1.023 0.018-2.042 0.053-3.056l-0.004 0.147v-41.79c0.257-1.769 0.403-3.812 0.403-5.888 0-23.852-19.336-43.189-43.189-43.189-2.235 0-4.43 0.17-6.574 0.497l0.24-0.030v-29.108c1.88 0.289 4.050 0.455 6.257 0.455 23.901 0 43.277-19.376 43.277-43.277 0-2.109-0.151-4.183-0.443-6.212l0.027 0.232v-39.976c-0.063-1.238-0.098-2.688-0.098-4.146 0-21.658 7.873-41.478 20.913-56.753l-0.101 0.121c16.303-16.483 37.389-28.205 61.005-32.912l0.756-0.126 8.795 23.089c-28.187 7.073-48.729 32.187-48.729 62.099 0 2.257 0.117 4.486 0.345 6.683l-0.023-0.275v41.385c0.107 1.394 0.168 3.020 0.168 4.66 0 26.409-15.787 49.131-38.438 59.244l-0.412 0.164c23.037 10.081 38.841 32.675 38.841 58.961 0 1.589-0.058 3.164-0.171 4.723l0.012-0.209zM580.252 672.863v42.196c0.044 1.030 0.069 2.238 0.069 3.452 0 21.582-7.932 41.31-21.040 56.431l0.091-0.107c-16.327 16.265-37.337 27.839-60.832 32.526l-0.762 0.127-8.836-23.115c28.306-7.159 48.92-32.402 48.92-62.46 0-2.694-0.166-5.349-0.487-7.955l0.031 0.312v-40.787c24.847-10.714 41.924-34.998 41.924-63.27s-17.077-52.556-41.479-63.099l-0.445-0.171v-44.181c0.106-1.377 0.167-2.982 0.167-4.602 0-29.899-20.619-54.983-48.413-61.808l-0.437-0.091 9.065-23.089c24.2 4.95 45.149 16.534 61.492 32.754l-0.008-0.008c13.1 14.98 21.089 34.72 21.089 56.326 0 1.456-0.036 2.904-0.108 4.343l0.008-0.202v40.6c-0.264 1.797-0.415 3.871-0.415 5.98 0 23.901 19.376 43.277 43.277 43.277 2.208 0 4.377-0.165 6.496-0.484l-0.238 0.030v29.108c-1.97-0.32-4.241-0.503-6.555-0.503-23.712 0-42.934 19.222-42.934 42.934 0 1.953 0.13 3.876 0.383 5.76l-0.024-0.22zM421.979 585.16c-0.005 0-0.010 0-0.016 0-12.421 0-22.491-10.070-22.491-22.491 0-0.005 0-0.011 0-0.016v0.001-59.998c0-12.43 10.077-22.507 22.507-22.507s22.507 10.077 22.507 22.507v0 59.998c0 0.005 0 0.010 0 0.016 0 12.421-10.070 22.491-22.491 22.491-0.005 0-0.011 0-0.016 0h0.001zM450.11 712.309c0-15.536-12.594-28.131-28.131-28.131s-28.131 12.594-28.131 28.131c0 15.536 12.594 28.131 28.131 28.131s28.131-12.594 28.131-28.131zM843.953 319.302h-56.261v530.988c-0.003 60.592-49.123 109.71-109.715 109.71h-511.984c-60.594 0-109.715-49.121-109.715-109.715v0-530.982h-56.266v-281.321h57.046c3.991-57.070 51.211-101.869 108.919-101.981h511.995c57.722 0.11 104.945 44.91 108.916 101.636l0.019 0.345h57.041v281.321zM81.866 850.285c0.050 46.436 37.68 84.066 84.111 84.116h511.989c46.434-0.050 84.063-37.677 84.116-84.106v-530.993h-680.217v530.982zM731.784 266.253v-175.223h-23.265l-88.363 135.018v-135.018h-23.271v175.223h23.265l88.586-135.626v135.626h23.021zM556.025 184.045v-11.077c0.018-0.738 0.028-1.607 0.028-2.479 0-15.338-3.198-29.928-8.964-43.141l0.271 0.696c-5.275-12.197-13.732-22.18-24.334-29.173l-0.246-0.153c-10.14-6.35-22.46-10.115-35.66-10.115-0.52 0-1.038 0.006-1.555 0.017l0.077-0.001c-0.501-0.014-1.091-0.022-1.683-0.022-26.646 0-49.571 15.931-59.771 38.787l-0.166 0.416c-5.753 12.496-9.107 27.115-9.107 42.516 0 0.386 0.002 0.772 0.006 1.157l-0.001-0.059v12.631c-0.014 0.646-0.022 1.406-0.022 2.169 0 15.364 3.251 29.969 9.102 43.165l-0.269-0.68c10.076 23.68 33.145 39.982 60.023 39.982 0.58 0 1.158-0.008 1.734-0.023l-0.085 0.002c0.398 0.008 0.867 0.013 1.337 0.013 13.272 0 25.659-3.794 36.133-10.357l-0.285 0.167c10.958-7.154 19.491-17.205 24.615-29.073l0.163-0.425c5.491-12.551 8.686-27.177 8.686-42.549 0-0.839-0.010-1.676-0.028-2.51l0.002 0.124zM352.957 155.233c-9.395 6.145-20.331 10.934-32.035 13.749l-0.712 0.145c-16.661 3.953-31.226 11.244-43.584 21.17l0.213-0.166c-8.311 7.392-13.52 18.115-13.52 30.054 0 0.241 0.002 0.482 0.006 0.722l-0.001-0.036c-0.003 0.197-0.005 0.429-0.005 0.662 0 13.635 6.446 25.765 16.457 33.508l0.098 0.073c10.982 8.498 24.949 13.622 40.114 13.622 1.041 0 2.077-0.024 3.106-0.072l-0.146 0.005c0.378 0.007 0.824 0.011 1.271 0.011 11.265 0 21.927-2.581 31.427-7.185l-0.43 0.188c9.089-4.353 16.516-10.922 21.779-19.027l0.125-0.205c4.89-7.497 7.798-16.674 7.798-26.53 0-0.109 0-0.219-0.001-0.328v0.017h-23.265c0.028 0.501 0.044 1.087 0.044 1.677 0 9.224-3.905 17.537-10.151 23.375l-0.018 0.017c-7.022 5.721-16.079 9.186-25.946 9.186-0.93 0-1.852-0.031-2.766-0.091l0.124 0.007c-0.753 0.048-1.634 0.075-2.52 0.075-9.042 0-17.42-2.844-24.288-7.686l0.133 0.089c-5.878-4.653-9.615-11.787-9.615-19.795 0-0.398 0.009-0.794 0.027-1.187l-0.002 0.056c0.010-7.395 3.562-13.959 9.049-18.088l0.058-0.042c8.827-6.16 19.186-10.857 30.349-13.463l0.604-0.119c13.014-3.347 24.415-7.974 34.997-13.891l-0.733 0.376c7.496-4.276 13.648-10.103 18.178-17.080l0.123-0.203c3.741-6.323 5.951-13.936 5.951-22.064 0-0.404-0.005-0.807-0.016-1.208l0.001 0.059c0.012-0.368 0.019-0.8 0.019-1.234 0-13.439-6.49-25.362-16.506-32.807l-0.109-0.078c-11.382-8.082-25.56-12.92-40.868-12.92-1.273 0-2.539 0.033-3.795 0.1l0.176-0.007c-0.175-0.001-0.382-0.002-0.589-0.002-11.989 0-23.383 2.545-33.672 7.125l0.527-0.21c-9.847 4.133-18.009 10.629-24.029 18.8l-0.11 0.156c-5.33 7.418-8.524 16.683-8.524 26.694 0 0.224 0.002 0.447 0.005 0.669v-0.034h23.265c-0.015-0.359-0.024-0.78-0.024-1.203 0-9.695 4.576-18.321 11.687-23.836l0.069-0.051c8.014-5.804 18.042-9.285 28.883-9.285 0.884 0 1.762 0.023 2.634 0.069l-0.122-0.005c0.869-0.059 1.884-0.093 2.907-0.093 9.371 0 18.082 2.826 25.327 7.671l-0.165-0.104c5.973 4.459 9.799 11.509 9.799 19.452 0 0.316-0.006 0.63-0.018 0.943l0.001-0.045c0.018 0.348 0.029 0.756 0.029 1.167 0 7.559-3.526 14.295-9.023 18.651l-0.049 0.038zM222.898 266.253v-124.067c0.053-0.873 0.083-1.894 0.083-2.921 0-14.238-5.795-27.122-15.154-36.423l-0.003-0.003c-9.929-8.866-23.101-14.284-37.539-14.284-0.973 0-1.939 0.025-2.9 0.073l0.135-0.005c-1.072-0.071-2.323-0.111-3.585-0.111-14.181 0-27.172 5.092-37.245 13.548l0.089-0.073c-9.059 8.765-14.683 21.033-14.683 34.614 0 0.989 0.030 1.97 0.089 2.944l-0.006-0.134h23.141c-0.102-0.912-0.159-1.969-0.159-3.040 0-16.044 13.006-29.051 29.051-29.051 1.157 0 2.298 0.068 3.42 0.199l-0.136-0.013c0.377-0.016 0.818-0.026 1.262-0.026 8.552 0 16.295 3.462 21.905 9.060l-0.001-0.001c5.616 6.177 9.055 14.421 9.055 23.468 0 0.638-0.017 1.272-0.051 1.902l0.004-0.088v124.43h23.213zM677.977-38.401h-511.984c-43.585 0.143-79.338 33.482-83.306 76.049l-0.025 0.333h678.663c-3.994-42.906-39.759-76.247-83.339-76.377h-0.013zM485.398 248.809c-0.447 0.018-0.973 0.027-1.501 0.027-13.495 0-25.467-6.522-32.935-16.587l-0.078-0.11c-8.157-12.042-13.022-26.893-13.022-42.88 0-1.189 0.027-2.372 0.080-3.548l-0.006 0.167v-12.901c-0.080-1.324-0.125-2.871-0.125-4.429 0-16.009 4.788-30.9 13.010-43.319l-0.182 0.292c8.23-10.557 20.949-17.282 35.238-17.282 13.85 0 26.225 6.318 34.399 16.229l0.061 0.076c7.997 12.043 12.76 26.836 12.76 42.742 0 1.41-0.037 2.81-0.111 4.201l0.008-0.194v12.995c0.106 1.526 0.166 3.307 0.166 5.102 0 15.895-4.73 30.685-12.86 43.040l0.183-0.296c-7.636 10.191-19.685 16.715-33.257 16.715-0.643 0-1.283-0.015-1.919-0.044l0.090 0.003z" />
<glyph unicode="&#xe937;" glyph-name="seed" horiz-adv-x="1244" d="M781.875 736.077c-0.101 8.989-3.049 17.27-7.982 24.006l0.081-0.117c-4.915 5.788-12.198 9.436-20.332 9.436-0.755 0-1.502-0.031-2.241-0.093l0.097 0.006c-0.31 0.012-0.674 0.019-1.039 0.019-8.304 0-15.758-3.635-20.859-9.4l-0.026-0.030c-5.862-7.246-9.734-16.323-10.66-26.254l-0.015-0.196h62.976v2.627zM326.016 506.158h591.939c124.862 0.612 225.846 101.974 225.846 226.921s-100.984 226.309-225.787 226.921h-591.997c-124.862-0.612-225.846-101.974-225.846-226.921s100.984-226.309 225.787-226.921h0.058zM870.482 794.255l31.232-100.552 30.208 100.552h36.751l-59.776-172.575c-3.756-10.356-9.303-19.238-16.338-26.703l0.036 0.038c-7.161-6.95-16.943-11.235-27.725-11.235-0.906 0-1.805 0.030-2.695 0.090l0.121-0.006c-5.938 0.165-11.597 1.063-16.983 2.606l0.481-0.118v26.46l6.374-0.276c0.639-0.043 1.385-0.068 2.137-0.068 6.131 0 11.878 1.644 16.824 4.516l-0.161-0.086c4.868 3.813 8.459 9.056 10.15 15.094l0.049 0.205 4.7 12.739-52.7 149.315h37.299zM683.392 719.739c-0.013 0.574-0.021 1.249-0.021 1.927 0 14.088 3.283 27.409 9.126 39.24l-0.232-0.519c10.658 21.848 32.705 36.634 58.206 36.634 0.403 0 0.804-0.004 1.205-0.011l-0.060 0.001c0.666 0.025 1.448 0.039 2.233 0.039 12.349 0 23.889-3.465 33.7-9.477l-0.282 0.161c9.606-6.272 17.054-15.136 21.437-25.602l0.138-0.372c4.521-10.864 7.147-23.484 7.147-36.717 0-0.698-0.007-1.394-0.022-2.089l0.002 0.104v-14.531h-97.792c0.542-7.544 2.691-14.479 6.104-20.615l-0.129 0.253c3.238-5.795 7.828-10.488 13.358-13.757l0.169-0.092c5.47-3.143 12.027-4.997 19.017-4.997 0.311 0 0.621 0.004 0.93 0.011l-0.046-0.001c0.355-0.010 0.774-0.016 1.193-0.016 14.813 0 27.957 7.149 36.169 18.185l0.085 0.12 18.432-17.864c-5.912-8.377-13.538-15.151-22.403-19.916l-0.345-0.169c-9.621-5.084-21.028-8.069-33.132-8.069-0.736 0-1.47 0.011-2.2 0.033l0.107-0.003c-0.524-0.013-1.141-0.021-1.76-0.021-13.412 0-26 3.526-36.889 9.702l0.371-0.194c-10.715 6.174-19.281 15.012-24.955 25.628l-0.169 0.345c-5.491 10.38-8.714 22.689-8.714 35.751 0 0.431 0.004 0.861 0.011 1.291l-0.001-0.065v5.673zM533.443 857.124h34.401v-122.015l10.24 12.739 41.052 46.397h41.626l-55.624-62.326 61.44-87.552h-39.936l-43.699 64-15.099-15.36v-48.614h-34.401v212.736zM296.34 817.649l79.473 29.087h4.301v-202.348h-34.55v160.937l-49.224-16.476v28.8zM757.75 137.953c-5.639-3.829-9.294-10.211-9.294-17.447 0-0.296 0.006-0.591 0.018-0.884l-0.001 0.042c-0.008-0.21-0.013-0.457-0.013-0.705 0-5.583 2.344-10.618 6.102-14.176l0.009-0.008c4.159-3.6 9.622-5.794 15.597-5.794 0.511 0 1.018 0.016 1.521 0.048l-0.069-0.003c0.196-0.004 0.427-0.006 0.659-0.006 6.846 0 13.247 1.906 18.702 5.216l-0.16-0.090c5.155 2.983 9.319 7.158 12.203 12.164l0.085 0.159v27.986h-18.033c-0.94 0.066-2.036 0.104-3.141 0.104-8.92 0-17.266-2.455-24.401-6.726l0.216 0.12zM1017.098 389.842h-790.18c-0.32 0.002-0.699 0.003-1.078 0.003-125.326 0-226.924-101.597-226.924-226.924s101.597-226.924 226.924-226.924c0.379 0 0.758 0.001 1.136 0.003h790.117c0.321-0.002 0.701-0.003 1.080-0.003 125.326 0 226.924 101.597 226.924 226.924s-101.597 226.924-226.924 226.924c-0.378 0-0.756-0.001-1.134-0.003h0.058zM288.829 74.24h-136.192v23.823l65.751 71.168c5.733 6.248 11.282 12.994 16.458 20.033l0.469 0.668c3.335 4.499 6.239 9.634 8.477 15.113l0.171 0.473c1.608 4.11 2.546 8.868 2.56 13.844v0.006c0.021 0.443 0.033 0.962 0.033 1.484 0 8.177-2.983 15.657-7.919 21.411l0.037-0.044c-5.058 5.389-12.225 8.746-20.177 8.746-0.535 0-1.067-0.015-1.594-0.045l0.073 0.003c-0.601 0.041-1.302 0.065-2.009 0.065-9.095 0-17.283-3.882-22.998-10.078l-0.020-0.022c-5.432-6.701-8.721-15.331-8.721-24.73 0-0.681 0.017-1.357 0.051-2.029l-0.004 0.094h-34.524c-0.003 0.224-0.004 0.488-0.004 0.753 0 11.668 3.038 22.626 8.367 32.126l-0.171-0.332c5.623 9.893 13.697 17.818 23.415 23.105l0.311 0.155c10.097 5.424 22.092 8.611 34.831 8.611 0.675 0 1.348-0.009 2.019-0.027l-0.099 0.002c0.643 0.019 1.4 0.029 2.159 0.029 11.671 0 22.756-2.511 32.744-7.021l-0.502 0.203c9.155-4.215 16.585-10.853 21.653-19.099l0.122-0.214c4.711-8.094 7.492-17.814 7.492-28.184 0-0.489-0.006-0.976-0.018-1.462l0.001 0.072c-0.22-13.15-4.112-25.348-10.692-35.666l0.165 0.276c-9.265-14.646-19.428-27.367-30.82-38.868l0.018 0.018-43.827-46.812h92.923v-27.699zM459.807 99.164c0.114-0.001 0.249-0.002 0.384-0.002 5.105 0 9.934 1.178 14.232 3.277l-0.192-0.085c4.251 2.061 7.757 5.074 10.342 8.777l0.057 0.086c2.49 3.623 4.064 8.050 4.299 12.829l0.002 0.058h32.573c-0.243-9.934-3.466-19.069-8.804-26.599l0.1 0.149c-5.693-8.101-13.159-14.582-21.862-18.969l-0.338-0.154c-8.655-4.453-18.887-7.064-29.728-7.064-0.228 0-0.456 0.001-0.683 0.003h0.035c-0.656-0.023-1.428-0.036-2.202-0.036-13.157 0-25.445 3.725-35.865 10.178l0.292-0.168c-10.165 6.561-18.108 15.782-22.947 26.686l-0.154 0.389c-4.825 10.865-7.635 23.539-7.635 36.87 0 0.502 0.004 1.003 0.012 1.503l-0.001-0.075v4.71c-0.007 0.437-0.012 0.952-0.012 1.468 0 13.319 2.831 25.977 7.924 37.404l-0.233-0.585c5.021 11.275 12.947 20.491 22.839 26.945l0.237 0.145c10.724 6.264 23.61 9.962 37.359 9.962 11.59 0 22.567-2.628 32.366-7.32l-0.452 0.195c9.026-4.619 16.351-11.443 21.443-19.781l0.132-0.233c5.067-8.441 8.1-18.607 8.192-29.475v-0.026h-32.573c-0.231 5.388-1.694 10.387-4.112 14.787l0.088-0.174c-2.407 4.354-5.815 7.891-9.928 10.381l-0.123 0.069c-4.153 2.442-9.149 3.885-14.481 3.885-0.253 0-0.506-0.003-0.757-0.010l0.037 0.001c-0.732 0.070-1.582 0.11-2.441 0.11-9.978 0-18.698-5.385-23.412-13.407l-0.069-0.127c-4.76-9.175-7.552-20.031-7.552-31.539 0-0.94 0.019-1.876 0.056-2.807l-0.004 0.134v-4.71q-0.015-47.642 33.556-47.652zM678.134 74.24h-34.55v96.538c0.089 0.865 0.14 1.868 0.14 2.884 0 7.092-2.486 13.604-6.635 18.711l0.043-0.055c-4.686 4.054-10.839 6.524-17.57 6.524-0.767 0-1.526-0.032-2.276-0.095l0.098 0.007c-0.217 0.005-0.473 0.008-0.729 0.008-6.203 0-12.009-1.704-16.974-4.669l0.151 0.084c-5.108-3.14-9.218-7.447-12.036-12.564l-0.088-0.174v-107.203h-34.55v212.736h34.55v-79.227c9.844 11.719 24.505 19.116 40.894 19.116 0.203 0 0.406-0.001 0.609-0.003h-0.031c0.94 0.067 2.036 0.105 3.142 0.105 25.865 0 46.833-20.968 46.833-46.833 0-3.412-0.365-6.738-1.057-9.942l0.056 0.308v-96.256zM843.336 74.24h-35.226c-1.707 4.036-3.058 8.742-3.831 13.64l-0.045 0.348c-4.707-5.017-10.323-9.117-16.595-12.046l-0.332-0.139c-6.301-2.896-13.671-4.585-21.436-4.585-0.312 0-0.623 0.003-0.934 0.008l0.047-0.001c-0.284-0.005-0.619-0.008-0.955-0.008-9.239 0-17.975 2.154-25.733 5.986l0.34-0.152c-7.531 3.673-13.687 9.152-18.071 15.889l-0.105 0.172c-4.094 6.362-6.526 14.129-6.526 22.465 0 0.184 0.001 0.368 0.004 0.552v-0.028c-0.034 0.635-0.053 1.378-0.053 2.126 0 14.221 7.003 26.807 17.748 34.498l0.128 0.087c12.874 8.096 28.529 12.899 45.306 12.899 1.845 0 3.676-0.058 5.492-0.173l-0.248 0.013h20.803v9.702c0.082 0.732 0.129 1.581 0.129 2.44 0 12.744-10.331 23.076-23.076 23.076-1.006 0-1.996-0.064-2.968-0.189l0.115 0.012c-0.188 0.004-0.41 0.006-0.632 0.006-4.633 0-9.039-0.969-13.028-2.714l0.209 0.082c-3.673-1.596-6.714-4.058-8.958-7.137l-0.043-0.062c-2.002-2.812-3.201-6.318-3.201-10.103 0-0.048 0-0.096 0.001-0.144v0.007h-34.524c0.040 8.552 2.921 16.422 7.746 22.726l-0.066-0.090c5.65 7.415 13.029 13.234 21.55 16.906l0.348 0.133c9.147 4.076 19.819 6.45 31.047 6.45 0.521 0 1.040-0.005 1.558-0.015l-0.078 0.001c0.441 0.009 0.962 0.015 1.483 0.015 10.432 0 20.364-2.142 29.379-6.011l-0.485 0.185c8.598-3.732 15.619-9.74 20.489-17.27l0.109-0.179c4.679-7.628 7.45-16.865 7.45-26.749 0-0.581-0.010-1.16-0.029-1.736l0.002 0.084v-66.048c-0.046-0.991-0.071-2.153-0.071-3.322 0-10.538 2.111-20.584 5.933-29.736l-0.189 0.51v-2.35zM916.163 74.24h-34.524v149.862h34.524v-149.862zM913.265 250.004c-3.868-3.191-8.875-5.126-14.334-5.126-5.416 0-10.388 1.905-14.281 5.082l0.041-0.032c-3.261 3.167-5.284 7.593-5.284 12.492 0 0.209 0.004 0.418 0.011 0.625l-0.001-0.030c-0.006 0.168-0.009 0.365-0.009 0.563 0 4.952 2.020 9.432 5.281 12.661l0.001 0.001c3.835 3.235 8.831 5.201 14.287 5.201s10.453-1.966 14.321-5.228l-0.033 0.027c3.262-3.231 5.282-7.711 5.282-12.662 0-0.198-0.003-0.395-0.010-0.591l0.001 0.029c0.005-0.152 0.007-0.331 0.007-0.511 0-4.902-2.026-9.331-5.287-12.495l-0.004-0.004zM1083.889 74.24h-34.55v96.952c0.091 0.86 0.143 1.859 0.143 2.869 0 7.008-2.49 13.434-6.633 18.443l0.039-0.049c-4.707 3.973-10.841 6.387-17.539 6.387-0.777 0-1.547-0.033-2.308-0.096l0.099 0.007c-0.153 0.003-0.334 0.004-0.515 0.004-6.224 0-12.039-1.754-16.977-4.795l0.14 0.080c-5.161-3.261-9.3-7.704-12.111-12.964l-0.090-0.185v-106.65h-34.534v149.862h32.451l1.101-17.311c5.153 6.244 11.544 11.271 18.817 14.746l0.331 0.143c6.962 3.277 15.122 5.191 23.728 5.191 0.237 0 0.473-0.001 0.709-0.004h-0.036c0.872 0.059 1.89 0.092 2.916 0.092 12.63 0 24.072-5.086 32.39-13.321l-0.004 0.004c7.904-10.199 12.671-23.176 12.671-37.266 0-1.922-0.089-3.824-0.262-5.701l0.018 0.241v-96.676z" />
<glyph unicode="&#xe938;" glyph-name="qr" horiz-adv-x="1013" d="M34.13 886.364c-0.001 0.081-0.001 0.177-0.001 0.273 0 21.538 17.358 39.023 38.847 39.228h92.179v34.135h-92.16c-40.365-0.224-73.001-32.998-73.001-73.394 0-0.085 0-0.17 0-0.255v0.013-93.184h34.135v93.184zM940.196 960h-92.16v-34.135h92.16c21.509-0.205 38.867-17.689 38.867-39.228 0-0.096 0-0.192-0.001-0.288v0.015-93.184h34.135v93.184c0 0.072 0 0.157 0 0.242 0 40.397-32.636 73.171-72.98 73.394h-0.021zM979.067 9.631c0.001-0.081 0.001-0.177 0.001-0.273 0-21.538-17.358-39.023-38.847-39.228h-92.179v-34.135h92.16c40.365 0.224 73.001 32.998 73.001 73.394 0 0.085 0 0.17 0 0.255v-0.013 93.184h-34.135v-93.184zM34.13 9.631v93.184h-34.135v-93.184c0-0.072 0-0.157 0-0.242 0-40.397 32.636-73.171 72.98-73.394h92.181v34.135h-92.16c-21.509 0.205-38.867 17.689-38.867 39.228 0 0.096 0 0.192 0.001 0.288v-0.015zM131.133 490.849h332.365v332.621h-332.365v-332.621zM175.508 779.105h243.62v-243.871h-243.625v243.871zM660.485 183.409h110.787v-110.874h-110.787v110.874zM660.485 405.156h110.787v-110.868h-110.787v110.868zM549.704 294.282h110.787v-110.868h-110.787v110.868zM771.277 183.409h110.787v-110.874h-110.787v110.874zM771.277 294.282h110.787v-110.868h-110.787v110.868zM131.133 72.54h332.365v332.621h-332.365v-332.621zM175.508 360.796h243.62v-243.871h-243.625v243.871zM226.186 728.346h142.264v-142.372h-142.264v142.372zM226.186 310.031h142.264v-142.372h-142.264v142.372zM882.063 823.47h-332.621v-332.365h332.621v332.365zM837.688 535.496h-243.871v243.62h243.871v-243.62zM644.572 728.422h142.372v-142.264h-142.372v142.264z" />
</font>
</defs>
</svg>
